<svg width="264" height="45" viewBox="0 0 264 45" fill="none" xmlns="http://www.w3.org/2000/svg">
<path d="M0.0942062 33.1162C0.0310743 32.5059 0 31.9267 0 31.3785C0 30.2041 0.133289 29.1389 0.398843 28.1839L2.395 22.2424C3.05338 20.1591 4.10958 19.1179 5.56563 19.1179C5.94241 19.1179 6.33323 19.1811 6.74008 19.3063C8.25925 19.7763 9.01884 20.7313 9.01884 22.1713C9.01884 22.7195 8.90861 23.3377 8.69015 24.0272L6.95153 29.1238C6.68598 29.9846 6.55269 30.7833 6.55269 31.5188C6.55269 34.1493 8.23621 36.0132 11.6022 37.1095C13.0272 37.3911 14.0684 37.5394 14.7258 37.5554H14.8671C15.5405 37.5554 16.6518 37.4693 18.202 37.2969L19.4236 37.0153C15.9784 33.8367 14.2558 31.8946 14.2558 31.1901C14.1305 31.1901 14.0373 30.658 13.9742 29.5938C14.0053 28.4654 14.6085 27.4563 15.783 26.5635C16.8472 25.7498 18.7191 25.3419 21.3957 25.3419H28.5827V31.6601H23.0872C25.4041 33.4919 26.5945 35.3398 26.6567 37.2027C26.6567 38.9093 26.0624 40.3342 24.872 41.4776C23.6825 42.636 21.6152 43.3405 18.672 43.5911H15.5014C13.4501 43.5911 11.6724 43.4267 10.1693 43.098C8.57192 42.7693 6.92046 42.0799 5.21389 41.0317C3.52236 39.9975 2.2938 38.8862 1.5262 37.6957C0.759597 36.5063 0.281598 34.9791 0.0942062 33.1162ZM41.7352 25.3419H46.0803C46.3939 25.3269 46.6915 25.3189 46.9731 25.3189C49.6036 25.3189 50.9184 26.2348 50.9184 28.0666C50.9184 30.3524 49.2359 31.5509 45.8688 31.6601H27.784V25.3419H31.589C31.0258 23.949 30.7442 22.7896 30.7442 21.8667C30.6971 21.5841 30.6731 21.2865 30.6731 20.9738C30.6731 19.3765 31.3695 17.5366 32.7634 15.4543C34.3758 13.0432 36.7097 11.6573 39.7631 11.2976C40.2641 11.2345 40.7571 11.2034 41.2422 11.2034C43.7003 11.2034 45.9319 11.963 47.9361 13.4812C48.8911 14.1235 49.6738 14.828 50.285 15.5956C50.8322 16.4403 51.1067 17.216 51.1067 17.9204C51.1067 18.7812 50.6839 19.5328 49.8381 20.1751C49.1336 20.6922 48.4763 20.9498 47.865 20.9498C47.1134 20.9498 46.2687 20.575 45.3287 19.8234C44.1542 18.7582 42.8084 18.2181 41.2892 18.202C38.9714 18.202 37.7188 19.4236 37.5314 21.8667C37.5314 23.7135 38.9323 24.873 41.7352 25.3419ZM40.5146 3.24176C42.628 3.24176 43.6853 4.24385 43.6853 6.24804C43.6853 8.26725 42.628 9.27737 40.5146 9.27737C38.3842 9.27737 37.32 8.26725 37.32 6.24804C37.32 4.24385 38.3842 3.24176 40.5146 3.24176ZM64.8695 25.3419H67.993V31.6601H66.7013C66.1221 31.6601 65.6602 31.7774 65.3164 32.0129C64.8465 32.3566 64.5719 33.1162 64.4937 34.2906C64.4316 35.3709 64.3063 36.4281 64.1179 37.4612C63.68 39.3873 62.5837 41.0778 60.8301 42.5348C58.5122 44.1632 56.2896 44.9769 54.1601 44.9769H53.3144C51.1218 44.9769 49.807 44.6954 49.3681 44.1312C49.0555 44.1312 48.6797 43.4427 48.2408 42.0649V41.3133C48.2408 39.9975 49.1176 39.0275 50.8713 38.4012C51.1378 38.4012 51.3883 38.3691 51.6228 38.307C52.2181 38.3691 52.7823 38.4012 53.3144 38.4012H53.8775C55.1773 38.4012 56.3367 37.7749 57.3538 36.5223C57.8549 35.7076 58.1054 34.7526 58.1054 33.6563C58.1054 32.56 58.1835 31.621 58.3409 30.8384L58.5754 29.664C59.844 26.7829 61.9414 25.3419 64.8695 25.3419ZM81.2166 24.4731C82.2187 24.1444 82.7198 23.2516 82.7198 21.7955V21.7484C82.7037 19.8384 81.858 18.8834 80.1825 18.8834C78.492 18.8834 77.6462 19.8384 77.6462 21.7484L77.6231 25.3419C77.2624 29.5537 75.4306 31.6601 72.1267 31.6601H67.0541V25.3419H69.1675C70.5774 25.3419 71.2819 24.4811 71.2819 22.7585C71.2819 20.7854 71.4222 19.165 71.7038 17.8974C72.3772 14.7498 75.1329 13.0272 79.971 12.7296H80.0422C85.5687 12.7296 88.591 14.9061 89.1081 19.2592C89.2174 20.2142 89.2725 21.1221 89.2725 21.9839C89.2725 24.9902 88.5991 27.315 87.2523 28.9595C85.8273 30.4305 84.1057 31.1671 82.0855 31.1671C81.6315 31.1671 81.1615 31.128 80.6765 31.0498C78.985 30.5959 78.1392 29.4525 78.1392 27.6207C78.1392 27.5896 78.1472 27.5495 78.1633 27.5034C78.1943 25.6085 79.2125 24.5984 81.2166 24.4731ZM122.036 31.2142C120.627 31.5118 119.444 31.6601 118.49 31.6601C113.824 31.3625 111.154 29.6399 110.481 26.4933C110.199 25.2247 110.05 23.8859 110.034 22.4769V21.9599C110.034 20.5038 109.91 19.7763 109.659 19.7763C109.393 19.7763 109.001 19.9406 108.485 20.2693C107.169 20.9898 106.511 22.5942 106.511 25.0844V39.4574C106.511 42.0879 105.392 43.4036 103.152 43.4036C101.086 43.4036 100.053 42.0799 100.053 39.4344V24.8729C100.053 20.5349 101.282 17.4745 103.74 15.6888C105.384 14.5153 106.879 13.7557 108.226 13.411C109.212 13.0513 110.222 12.8709 111.255 12.8709C111.914 12.8709 112.579 12.941 113.252 13.0823C115.35 13.7397 116.399 15.6818 116.399 18.9065V19.0478L116.423 22.6413C116.423 24.5513 117.268 25.5063 118.959 25.5063C120.635 25.5063 121.48 24.5513 121.496 22.6413V22.5942C121.496 21.1382 120.995 20.2453 119.993 19.9166C117.988 19.7913 116.97 18.7812 116.939 16.8873C116.924 16.8402 116.916 16.8011 116.916 16.77C116.916 14.9372 117.761 13.7948 119.453 13.3409C119.938 13.2627 120.408 13.2236 120.861 13.2236C122.882 13.2236 124.604 13.9591 126.028 15.4312C127.36 17.0596 128.025 18.68 128.025 20.2924V20.3395C128.009 21.9679 127.993 22.9229 127.978 23.2045V23.3458C127.978 23.5813 128.009 23.8237 128.072 24.0743C128.448 24.919 129.364 25.3419 130.82 25.3419H131.478V31.6601H130.045C127.947 31.613 126.42 30.9787 125.465 29.7581C124.588 30.4305 123.445 30.9166 122.036 31.2142ZM141.295 31.6601H130.492V25.3419H142.728C145.154 25.1696 146.368 24.2386 146.368 22.5471C146.368 20.4487 145.648 18.8363 144.207 17.709C143.722 17.3332 143.205 17.1458 142.657 17.1458C141.546 17.1458 140.285 17.8974 138.876 19.4005C137.217 21.0439 135.737 21.8667 134.437 21.8667H134.343C133.466 21.8667 132.675 21.4748 131.971 20.6922C131.533 20.1912 131.313 19.5879 131.313 18.8834C131.313 18.7111 131.321 18.5387 131.336 18.3664C131.431 17.2711 131.884 16.2369 132.699 15.2669C134.625 12.8709 136.762 11.1874 139.111 10.2173C139.987 9.85657 140.934 9.67622 141.953 9.67622C143.612 9.67622 145.452 10.1702 147.472 11.1563C150.713 12.7376 152.491 15.6737 152.803 19.9637C152.803 20.1982 152.811 21.0049 152.827 22.3828C153.015 23.6203 153.328 24.4811 153.766 24.9661C154.111 25.2167 154.471 25.3419 154.846 25.3419H155.199V31.6601H154.706C152.154 31.613 150.454 30.6891 149.609 28.8883C148.263 30.627 146.141 31.5429 143.244 31.6371L141.295 31.6601ZM136.198 4.60361C136.198 2.58339 137.263 1.57427 139.392 1.57427C141.507 1.57427 142.563 2.58339 142.563 4.60361C142.563 6.6078 141.507 7.60989 139.392 7.60989C137.263 7.60989 136.198 6.6078 136.198 4.60361ZM152.968 7.72714C152.968 5.70792 154.033 4.6978 156.162 4.6978C158.276 4.6978 159.333 5.70792 159.333 7.72714C159.333 9.73132 158.276 10.7334 156.162 10.7334C154.033 10.7334 152.968 9.73132 152.968 7.72714ZM159.92 7.75118C159.92 5.73096 160.984 4.72086 163.114 4.72086C165.228 4.72086 166.284 5.73096 166.284 7.75118C166.284 9.75536 165.228 10.7575 163.114 10.7575C160.984 10.7575 159.92 9.75536 159.92 7.75118ZM154.236 25.3419H155.152C160.053 25.3419 162.503 23.3768 162.503 19.4466V16.8171C162.503 14.1856 163.623 12.8709 165.861 12.8709C167.929 12.8709 168.962 14.1936 168.962 16.8402V19.6581C168.962 23.9961 167.733 27.0565 165.275 28.8422C162.66 30.7201 159.387 31.6601 155.458 31.6601H154.236V25.3419ZM195.924 18.1088C195.298 17.2159 194.429 16.762 193.318 16.746H193.177C192.127 16.746 191.306 17.1769 190.71 18.0377L193.341 21.561L195.924 18.1088ZM199.049 25.2487C199.377 25.3109 199.721 25.3419 200.082 25.3419H206.54V31.6601H198.719C196.591 31.6601 194.852 30.5328 193.505 28.2781C192.848 30.0949 191.58 31.1751 189.7 31.5188C189.576 31.5659 189.443 31.613 189.301 31.6601C187.548 32.1141 186.671 33.3046 186.671 35.2296C186.671 35.4961 186.702 35.7707 186.765 36.0523L186.812 36.1926C187.188 37.5084 188.174 38.1657 189.771 38.1657C190.022 38.1657 190.287 38.1347 190.57 38.0715C190.93 37.9934 191.259 37.9543 191.556 37.9543C192.558 37.9543 193.326 38.3932 193.858 39.27C194.061 39.5827 194.203 39.8963 194.281 40.209C194.343 40.4284 194.375 40.6559 194.375 40.8904C194.375 41.5638 194.131 42.2523 193.646 42.9567C193.051 43.8496 192.127 44.4528 190.875 44.7655C190.328 44.9068 189.708 44.985 189.02 45C187.11 45 185.246 44.2254 183.43 42.6751C182.145 41.5478 181.262 40.3112 180.776 38.9644C180.338 37.7428 180.11 36.5373 180.095 35.3478V34.3608C180.095 32.4037 180.697 30.6661 181.903 29.1469C182.623 28.4113 183.313 27.8001 183.97 27.3151C184.33 27.0174 184.714 26.7669 185.121 26.5635C185.528 26.344 185.974 26.1566 186.459 26.0003C186.944 25.8279 187.399 25.6165 187.822 25.366C187.994 25.2407 188.057 25.1074 188.01 24.9661L186.484 22.9229L185.026 20.8325C182.71 17.9365 183.069 15.314 186.108 12.9651C186.467 12.6985 186.874 12.425 187.328 12.1424C188.989 11.1723 190.797 10.6783 192.754 10.6633H193.905C195.924 10.7254 197.78 11.2655 199.471 12.2837C199.847 12.5181 200.215 12.7687 200.575 13.0352L202.008 14.1856C203.667 15.9864 203.863 17.8342 202.595 19.7292L200.222 22.8527L198.719 24.8489C198.626 25.0373 198.735 25.1696 199.049 25.2487ZM227.537 23.6745C227.506 23.8157 227.475 23.949 227.444 24.0743C227.82 24.919 228.736 25.3419 230.192 25.3419H230.849V31.6601H229.416C227.319 31.613 225.792 30.9787 224.837 29.7581C223.96 30.4305 222.981 30.8614 221.901 31.0498C221.463 31.128 221.016 31.1671 220.562 31.1671C220.108 31.1671 219.639 31.128 219.153 31.0498C217.462 30.5959 216.616 29.4525 216.616 27.6207C216.616 27.5896 216.624 27.5495 216.64 27.5034C216.672 25.6085 217.689 24.5984 219.693 24.4731C220.695 24.1444 221.196 23.2516 221.196 21.7955V21.7484C221.181 19.8384 220.335 18.8834 218.66 18.8834C216.968 18.8834 216.123 19.8384 216.123 21.7484L216.099 25.3419C215.74 29.5537 213.908 31.6601 210.604 31.6601H205.53V25.3419H207.645C209.054 25.3419 209.758 24.4811 209.758 22.7585C209.758 20.7854 209.899 19.165 210.181 17.8974C210.854 14.7498 213.61 13.0272 218.448 12.7296H218.518C224.046 12.7296 227.068 14.9061 227.584 19.2592C227.695 20.0268 227.749 20.7543 227.749 21.4438C227.749 22.2264 227.679 22.97 227.537 23.6745ZM243.016 8.83144C243.016 6.81122 244.08 5.80112 246.209 5.80112C248.323 5.80112 249.38 6.81122 249.38 8.83144C249.38 10.8356 248.323 11.8377 246.209 11.8377C244.08 11.8377 243.016 10.8356 243.016 8.83144ZM246.562 3.03032C246.562 1.0101 247.626 0 249.756 0C251.87 0 252.926 1.0101 252.926 3.03032C252.926 5.0345 251.87 6.0366 249.756 6.0366C247.626 6.0366 246.562 5.0345 246.562 3.03032ZM249.967 8.85449C249.967 6.83528 251.032 5.82516 253.162 5.82516C255.275 5.82516 256.332 6.83528 256.332 8.85449C256.332 10.8587 255.275 11.8608 253.162 11.8608C251.032 11.8608 249.967 10.8587 249.967 8.85449ZM235.147 18.0146C235.147 14.5855 236.283 12.8709 238.552 12.8709C240.917 12.8869 242.1 14.2718 242.1 17.0276V22.7114C242.209 24.7788 243.07 25.8119 244.683 25.8119C245.92 25.8119 246.538 24.904 246.538 23.0872V17.0276C246.538 14.366 247.743 12.9801 250.156 12.8709C252.113 12.8709 253.138 14.3039 253.232 17.1689V22.5711C253.341 24.7787 254.132 25.8821 255.604 25.8821H255.651C257.076 25.8821 257.788 24.8259 257.788 22.7114V17.3572C257.788 14.366 258.869 12.8709 261.029 12.8709C262.908 12.8709 263.855 14.351 263.871 17.3101V21.7955C263.871 24.7236 263.37 27.0335 262.368 28.724C261.194 30.6811 259.487 31.7383 257.248 31.8946H256.144C253.232 31.7383 251.259 30.8855 250.226 29.3353C249.615 30.8855 248.072 31.8946 245.599 32.3646C245.285 32.3806 244.973 32.3886 244.659 32.3886C241.575 32.3886 239.258 31.5269 237.708 29.8043C236.157 31.0418 234.278 31.6601 232.071 31.6601H230.239V25.3419H232.705C234.333 25.3419 235.147 24.1214 235.147 21.6783V18.0146Z" fill="#FADADD"/>
</svg>
