<svg width="205" height="45" viewBox="0 0 205 45" fill="none" xmlns="http://www.w3.org/2000/svg">
<path d="M0.0932123 33.1162C0.0310825 32.5059 0 31.9267 0 31.3785C0 30.2041 0.133289 29.1389 0.398843 28.1839L2.39502 22.2424C3.05339 20.1591 4.1096 19.1179 5.56564 19.1179C5.94143 19.1179 6.33324 19.1811 6.74009 19.3063C8.25926 19.7763 9.01884 20.7313 9.01884 22.1713C9.01884 22.7195 8.90861 23.3377 8.69015 24.0272L6.95153 29.1238C6.68598 29.9846 6.55269 30.7833 6.55269 31.5188C6.55269 34.1493 8.2352 36.0132 11.6022 37.1095C13.0272 37.3911 14.0684 37.5394 14.7258 37.5554H14.8671C15.5395 37.5554 16.6518 37.4693 18.202 37.2969L19.4236 37.0153C15.9784 33.8367 14.2558 31.8946 14.2558 31.1901C14.1305 31.1901 14.0363 30.658 13.9742 29.5938C14.0053 28.4654 14.6085 27.4563 15.783 26.5635C16.8472 25.7498 18.7181 25.3419 21.3957 25.3419H28.5827V31.6601H23.0872C25.4041 33.4919 26.5946 35.3398 26.6567 37.2027C26.6567 38.9093 26.0614 40.3342 24.872 41.4776C23.6825 42.636 21.6151 43.3405 18.672 43.5911H15.5004C13.4501 43.5911 11.6724 43.4267 10.1693 43.098C8.57192 42.7693 6.92046 42.0799 5.21389 41.0317C3.52236 39.9975 2.2938 38.8862 1.5262 37.6957C0.758595 36.5063 0.281606 34.9791 0.0932123 33.1162ZM34.7366 3.35901C34.7366 1.33879 35.8008 0.328689 37.9302 0.328689C40.0447 0.328689 41.1009 1.33879 41.1009 3.35901C41.1009 5.36319 40.0447 6.36529 37.9302 6.36529C35.8008 6.36529 34.7366 5.36319 34.7366 3.35901ZM29.6399 15.6186C29.8123 10.9218 31.9888 8.32238 36.1686 7.82133C36.6546 7.7121 37.328 7.65698 38.1888 7.65698C41.1951 7.65698 43.4808 8.36146 45.0471 9.77041C46.5973 11.1483 47.5052 13.4341 47.7718 16.6287C47.8339 17.3021 47.865 18.0066 47.865 18.7422C47.8971 19.1811 47.9121 19.612 47.9121 20.0339C47.85 24.1675 46.8549 27.1427 44.9298 28.9595C43.0189 30.7602 40.217 31.6601 36.5213 31.6601H27.784V25.3419H37.1316C40.0286 25.1074 41.5007 23.8468 41.5478 21.561C41.5788 21.0439 41.5939 20.5279 41.5939 20.0108C41.5939 18.8053 41.4927 17.6539 41.2892 16.5586C40.9916 14.9923 39.8953 14.2097 38.0014 14.2097H37.9543C36.6856 14.2257 35.9731 14.6947 35.8168 15.6186C35.8168 16.6367 36.38 17.1458 37.5074 17.1458H37.6486C39.6839 17.1458 40.702 18.1549 40.702 20.1751C40.7181 20.2222 40.7251 20.2613 40.7251 20.2924C40.7251 22.1242 39.8803 23.2676 38.1888 23.7215C37.7038 23.7997 37.2338 23.8388 36.7798 23.8388C34.7596 23.8388 33.037 23.1033 31.613 21.6312C31.597 21.6001 31.573 21.5771 31.5419 21.561C30.4466 20.3395 29.8123 18.5708 29.6399 16.2529V15.6186ZM73.9585 24.3328C74.9766 25.0052 75.8304 25.3419 76.5188 25.3419V31.6601H75.2742C73.2861 31.6601 71.6176 30.9246 70.2718 29.4525C70.0994 29.687 69.919 29.9065 69.7317 30.1099C69.4962 30.3604 69.2376 30.5799 68.956 30.7673V30.7442C68.0952 31.3545 67.0541 31.6601 65.8325 31.6601H55.6392C53.2753 31.6441 52.0768 30.658 52.0457 28.7009V28.6538C52.0457 26.4462 53.2903 25.3419 55.7805 25.3419H61.8402C63.8123 25.3419 64.7994 24.888 64.7994 23.9801C64.7994 23.6203 64.6501 23.1975 64.3524 22.7114L61.4173 19.0007C61.0255 18.4215 60.5094 18.1319 59.8671 18.1319C59.3029 18.1319 58.6375 18.3513 57.8709 18.7892C57.3067 19.134 56.7666 19.3063 56.2505 19.3063C55.6863 19.3063 55.1542 19.0869 54.6532 18.6489C54.3866 18.4295 54.097 18.0928 53.7843 17.6388C53.5338 17.2159 53.4086 16.746 53.4086 16.2299C53.4086 15.8691 53.4707 15.4783 53.596 15.0554C53.8625 14.1004 54.5039 13.3098 55.522 12.6825C55.9599 12.4169 56.485 12.1814 57.0953 11.978C57.91 11.6804 58.7237 11.5321 59.5384 11.5321C60.6497 11.5321 61.754 11.8067 62.8493 12.3538C63.4295 12.6364 64.0167 13.0192 64.611 13.5052C65.3936 14.0062 66.2314 14.8049 67.1242 15.9002L70.4121 20.2453C71.7749 22.2815 72.9564 23.6434 73.9585 24.3328ZM89.4368 25.3419H99.3946C102.15 25.3419 103.528 24.403 103.528 22.524C103.528 20.3946 102.573 19.3294 100.663 19.3294H100.499C94.298 19.643 90.6113 21.6472 89.4368 25.3419ZM78.1392 19.5408C78.1553 16.3471 79.3297 14.7498 81.6626 14.7498C83.7289 14.7498 84.763 16.3551 84.763 19.5649V22.3126C86.1249 18.8053 88.2073 16.4564 91.0101 15.2669C93.1556 13.9982 95.9655 13.2547 99.4417 13.0352C105.955 13.0352 109.321 15.4853 109.541 20.3866V24.5202C109.196 27.0094 108.163 28.8262 106.44 29.9686C104.719 31.097 101.869 31.6601 97.8915 31.6601H87.7924C85.9445 31.6601 84.269 30.9005 82.7659 29.3824L82.0614 28.6538C81.4511 30.2351 80.2376 31.2372 78.4208 31.6601H75.5087V25.3419H78.1392V19.5408ZM136.503 18.1088C135.877 17.2159 135.008 16.762 133.897 16.746H133.755C132.706 16.746 131.884 17.1769 131.289 18.0377L133.92 21.561L136.503 18.1088ZM139.628 25.2487C139.956 25.3109 140.3 25.3419 140.661 25.3419H147.119V31.6601H139.298C137.17 31.6601 135.431 30.5328 134.084 28.2781C133.427 30.0949 132.159 31.1751 130.279 31.5188C130.155 31.5659 130.022 31.613 129.88 31.6601C128.127 32.1141 127.25 33.3046 127.25 35.2296C127.25 35.4961 127.281 35.7707 127.344 36.0523L127.391 36.1926C127.767 37.5084 128.753 38.1657 130.35 38.1657C130.601 38.1657 130.866 38.1347 131.149 38.0715C131.509 37.9934 131.837 37.9543 132.135 37.9543C133.137 37.9543 133.905 38.3932 134.437 39.27C134.64 39.5827 134.782 39.8963 134.86 40.209C134.922 40.4284 134.954 40.6559 134.954 40.8904C134.954 41.5638 134.71 42.2523 134.225 42.9567C133.63 43.8496 132.706 44.4528 131.454 44.7655C130.906 44.9068 130.287 44.985 129.599 45C127.689 45 125.825 44.2254 124.009 42.6751C122.724 41.5478 121.841 40.3112 121.354 38.9644C120.917 37.7428 120.689 36.5373 120.674 35.3478V34.3608C120.674 32.4037 121.276 30.6661 122.482 29.1469C123.202 28.4113 123.892 27.8001 124.549 27.3151C124.909 27.0174 125.293 26.7669 125.7 26.5635C126.106 26.344 126.553 26.1566 127.038 26.0003C127.523 25.8279 127.978 25.6165 128.401 25.366C128.573 25.2407 128.636 25.1074 128.589 24.9661L127.062 22.9229L125.605 20.8325C123.289 17.9365 123.648 15.314 126.687 12.9651C127.046 12.6985 127.453 12.425 127.907 12.1424C129.568 11.1723 131.375 10.6783 133.333 10.6633H134.484C136.503 10.7254 138.359 11.2655 140.05 12.2837C140.426 12.5181 140.794 12.7687 141.154 13.0352L142.587 14.1856C144.246 15.9864 144.442 17.8342 143.174 19.7292L140.801 22.8527L139.298 24.8489C139.205 25.0373 139.314 25.1696 139.628 25.2487ZM168.116 23.6745C168.085 23.8157 168.054 23.949 168.023 24.0743C168.399 24.919 169.315 25.3419 170.771 25.3419H171.428V31.6601H169.995C167.898 31.613 166.371 30.9787 165.416 29.7581C164.539 30.4305 163.56 30.8614 162.479 31.0498C162.041 31.128 161.595 31.1671 161.141 31.1671C160.687 31.1671 160.218 31.128 159.732 31.0498C158.041 30.5959 157.195 29.4525 157.195 27.6207C157.195 27.5896 157.203 27.5495 157.218 27.5034C157.25 25.6085 158.268 24.5984 160.272 24.4731C161.274 24.1444 161.775 23.2516 161.775 21.7955V21.7484C161.76 19.8384 160.914 18.8834 159.239 18.8834C157.547 18.8834 156.702 19.8384 156.702 21.7484L156.678 25.3419C156.319 29.5537 154.487 31.6601 151.183 31.6601H146.109V25.3419H148.224C149.633 25.3419 150.337 24.4811 150.337 22.7585C150.337 20.7854 150.478 19.165 150.76 17.8974C151.433 14.7498 154.189 13.0272 159.027 12.7296H159.097C164.625 12.7296 167.647 14.9061 168.163 19.2592C168.273 20.0268 168.328 20.7543 168.328 21.4438C168.328 22.2264 168.257 22.97 168.116 23.6745ZM183.594 8.83144C183.594 6.81122 184.659 5.80112 186.788 5.80112C188.902 5.80112 189.959 6.81122 189.959 8.83144C189.959 10.8356 188.902 11.8377 186.788 11.8377C184.659 11.8377 183.594 10.8356 183.594 8.83144ZM187.141 3.03032C187.141 1.0101 188.205 0 190.335 0C192.449 0 193.505 1.0101 193.505 3.03032C193.505 5.0345 192.449 6.0366 190.335 6.0366C188.205 6.0366 187.141 5.0345 187.141 3.03032ZM190.546 8.85449C190.546 6.83528 191.611 5.82516 193.741 5.82516C195.854 5.82516 196.911 6.83528 196.911 8.85449C196.911 10.8587 195.854 11.8608 193.741 11.8608C191.611 11.8608 190.546 10.8587 190.546 8.85449ZM175.726 18.0146C175.726 14.5855 176.861 12.8709 179.131 12.8709C181.496 12.8869 182.679 14.2718 182.679 17.0276V22.7114C182.788 24.7788 183.649 25.8119 185.262 25.8119C186.499 25.8119 187.117 24.904 187.117 23.0872V17.0276C187.117 14.366 188.322 12.9801 190.734 12.8709C192.691 12.8709 193.717 14.3039 193.811 17.1689V22.5711C193.92 24.7787 194.711 25.8821 196.183 25.8821H196.23C197.655 25.8821 198.367 24.8259 198.367 22.7114V17.3572C198.367 14.366 199.448 12.8709 201.608 12.8709C203.487 12.8709 204.434 14.351 204.45 17.3101V21.7955C204.45 24.7236 203.949 27.0335 202.947 28.724C201.772 30.6811 200.066 31.7383 197.827 31.8946H196.723C193.811 31.7383 191.838 30.8855 190.805 29.3353C190.194 30.8855 188.651 31.8946 186.178 32.3646C185.864 32.3806 185.552 32.3886 185.238 32.3886C182.153 32.3886 179.837 31.5269 178.286 29.8043C176.736 31.0418 174.857 31.6601 172.65 31.6601H170.818V25.3419H173.284C174.912 25.3419 175.726 24.1214 175.726 21.6783V18.0146Z" fill="#FADADD"/>
</svg>
