<svg width="229" height="59" viewBox="0 0 229 59" fill="none" xmlns="http://www.w3.org/2000/svg">
<path d="M17.4443 8.61498L22.2659 13.4646L17.4443 18.2871L12.5937 13.4646L17.4443 8.61498ZM27.1736 8.61498L31.9952 13.4646L27.1736 18.2871L22.351 13.4646L27.1736 8.61498ZM6.18371 20.3293C4.99184 25.0758 5.02988 28.423 6.29686 30.3701C8.18783 33.2636 12.8301 34.8141 20.2237 35.0224C30.1703 35.3058 36.7036 34.0579 39.8245 31.2785C40.4104 30.7297 40.5997 30.1147 40.3913 29.4346C39.6352 27.0138 38.6987 24.6221 37.5829 22.2584L41.6964 17.0953C42.2823 16.3771 42.8302 16.4813 43.341 17.4078C45.2129 20.755 46.1404 24.1303 46.1213 27.5337C46.1023 30.919 45.5254 33.5851 44.3906 35.5332C41.0814 41.2812 33.5747 44.1557 21.8693 44.1557C14.7211 44.1557 9.42676 43.2102 5.98436 41.3193C1.9951 39.1258 0 35.429 0 30.2289C0.0190298 26.5411 0.964544 22.8443 2.83648 19.1375L6.18371 20.3293ZM77.6057 39.873C73.1998 43.692 65.7401 45.4037 55.2256 45.0071C54.8099 42.8697 54.4694 41.1871 54.205 39.9581C53.9406 38.577 53.8454 37.8118 53.9215 37.6605C54.1108 37.1878 54.9612 36.9224 56.4746 36.8663C59.935 36.7711 62.6573 36.4877 64.6434 36.0149L51.3115 9.57949L57.4381 5.3809L70.77 34.1711C73.9089 32.2611 75.4503 30.0586 75.3933 27.5627C75.1859 20.0359 74.7222 12.2647 74.0041 4.24613L80.3009 0.30394C81.4167 -0.377129 81.9836 0.0866074 82.0026 1.69313L82.1729 25.4634C82.229 32.3843 80.7076 37.1878 77.6057 39.873ZM107.332 44.1277C106.159 49.2327 103.843 53.5535 100.382 57.09C99.513 57.9784 98.6908 58.5082 97.9156 58.6785C97.4238 58.7917 96.6105 58.8387 95.4757 58.8207C92.2797 58.7636 89.5004 58.4612 87.1367 57.9123C86.5688 57.7801 86.2663 57.4876 86.2292 57.0329C86.2292 56.7685 86.7771 56.2767 87.8738 55.5586C95.8543 50.3775 100.525 46.5855 101.886 44.1838H99.3899C95.2484 44.1277 92.3649 43.2192 90.7383 41.4615C88.7151 39.2861 88.5078 35.438 90.1143 29.9164C90.9847 26.9287 92.1575 24.7443 93.6318 23.3641C94.8237 22.2674 96.289 21.7005 98.0287 21.6624C101.508 21.5493 104.07 23.4112 105.716 27.2502C106.832 29.8603 107.484 32.4313 107.673 34.9653H110.878C112.296 34.9653 113.005 36.1662 113.005 38.568V40.6382C113.005 43.0019 112.296 44.1747 110.878 44.1557L107.332 44.1277ZM102.595 35.0795C101.517 30.7297 99.503 28.7816 96.5534 29.2363C95.3816 29.4246 94.5583 30.2098 94.0855 31.59C93.4235 33.6132 94.3129 34.758 96.7517 35.0224C98.0568 35.1736 99.2386 35.2207 100.297 35.1636L102.595 35.0795ZM162.218 44.1557H161.424C157.623 44.1557 154.116 42.8417 150.901 40.2125C147.251 42.8797 142.741 44.2128 137.37 44.2128H130.733C126.876 44.2128 123.538 42.5672 120.72 39.2771C118.262 42.5292 115.199 44.1557 111.53 44.1557H110.594C109.176 44.1557 108.467 42.7946 108.467 40.0713V39.1348C108.467 36.3555 109.176 34.9653 110.594 34.9653H110.991C115.68 34.9653 118.148 33.4149 118.395 30.314L118.763 25.6898H122.649L123.075 30.314C123.32 33.0553 124.578 34.5967 126.847 34.9373C128.568 32.4784 130.44 30.1437 132.464 27.9313C137.909 21.9178 143.128 18.9201 148.12 18.9392C152.187 18.9392 155.051 20.5086 156.716 23.6476C157.472 25.0478 157.85 26.5221 157.85 28.0725C157.869 29.5288 157.604 30.966 157.055 32.3842C156.753 33.1785 156.346 34.0389 155.836 34.9653H162.218C163.637 34.9653 164.346 36.1662 164.346 38.568V40.6382C164.346 42.9829 163.637 44.1557 162.218 44.1557ZM131.442 34.9653H139.951C146.419 34.9653 150.23 34.4455 151.382 33.4059C152.083 32.7628 152.338 31.9025 152.149 30.8238C151.676 28.1576 149.587 26.8536 145.88 26.9097C141.587 26.9668 136.775 29.652 131.442 34.9653ZM196.965 24.6411C197.457 24.6782 198.147 24.6972 199.035 24.6972C199.357 24.6972 199.452 24.8775 199.32 25.236L197.05 31.6471C195.915 31.7793 194.081 32.4784 191.547 33.7454C192.246 34.5587 193.769 34.9653 196.114 34.9653H202.411C203.83 34.9653 204.539 36.1662 204.539 38.568V40.6382C204.539 42.9829 203.83 44.1557 202.411 44.1557H199.716C192.19 44.1557 187.926 41.3944 186.924 35.8727C184.56 37.4051 182.14 38.8424 179.663 40.1845C174.784 42.8316 169.886 44.1557 164.97 44.1557H161.934C160.516 44.1557 159.807 42.7946 159.807 40.0713V39.1348C159.807 36.3555 160.516 34.9653 161.934 34.9653H165.65C170.945 34.9653 175.72 34.0859 179.974 32.3272L187.037 29.4056C184.863 28.7255 182.593 27.9503 180.23 27.0799C177.563 26.0964 175.455 25.6056 173.905 25.6056C171.541 25.6056 169.31 26.8716 167.21 29.4056L164.203 27.8461L164.459 27.1931C166.823 21.0855 170.094 17.9186 174.273 17.6912C176.656 17.559 179.795 18.4003 183.69 20.2162C189.458 22.9014 193.883 24.3757 196.965 24.6411ZM202.156 44.1557C200.738 44.1557 200.029 42.7946 200.029 40.0713V39.1348C200.029 36.3555 200.738 34.9653 202.156 34.9653H202.893C205.521 34.9653 207.753 33.6983 209.588 31.1643C211.762 28.1386 213.643 25.87 215.232 24.3567C216.669 23.0336 218.285 22.3625 220.082 22.3435C221.274 22.3435 222.446 22.665 223.6 23.308C226.266 24.8394 227.939 27.2412 228.621 30.5123C229.66 35.429 228.563 39.4563 225.329 42.5953C224.347 43.5408 223.344 44.2128 222.323 44.6094C221.491 44.9309 220.565 44.95 219.543 44.6665C216.877 43.9103 213.889 42.0664 210.58 39.1348C207.857 42.4821 205.257 44.1557 202.78 44.1557H202.156ZM215.146 32.5265C218.021 35.5142 220.31 37.0265 222.011 37.0646C222.767 37.0646 223.316 36.8753 223.656 36.4977C224.034 36.1001 224.119 35.3058 223.911 34.115C223.723 32.9802 223.316 31.9305 222.692 30.966C221.935 29.8312 221.179 29.1221 220.423 28.8387C219.78 28.5933 219.222 28.6404 218.749 28.9809C217.539 29.8503 216.338 31.0321 215.146 32.5265Z" fill="white"/>
</svg>
