<svg width="180" height="25" viewBox="0 0 180 25" fill="none" xmlns="http://www.w3.org/2000/svg">
<path d="M0.598981 17.6727C0.199342 17.2741 0 16.7853 0 16.2064C0 15.6264 0.199342 15.1377 0.598981 14.7391C0.997619 14.3394 1.48737 14.1401 2.0663 14.1401C2.64522 14.1401 3.13403 14.3394 3.53367 14.7391C3.93231 15.1377 4.13161 15.6264 4.13161 16.2064C4.13161 16.7853 3.93231 17.2741 3.53367 17.6727C3.13403 18.0724 2.64522 18.2717 2.0663 18.2717C1.48737 18.2717 0.997619 18.0724 0.598981 17.6727ZM8.95635 17.6727C8.55671 17.2741 8.35737 16.7853 8.35737 16.2064C8.35737 15.6264 8.55671 15.1377 8.95635 14.7391C9.35499 14.3394 9.84376 14.1401 10.4227 14.1401C11.0026 14.1401 11.4914 14.3394 11.89 14.7391C12.2896 15.1377 12.489 15.6264 12.489 16.2064C12.489 16.7853 12.2896 17.2741 11.89 17.6727C11.4914 18.0724 11.0026 18.2717 10.4227 18.2717C9.84376 18.2717 9.35499 18.0724 8.95635 17.6727ZM17.3127 17.6727C16.914 17.2741 16.7147 16.7853 16.7147 16.2064C16.7147 15.6264 16.914 15.1377 17.3127 14.7391C17.7123 14.3394 18.2011 14.1401 18.7801 14.1401C19.359 14.1401 19.8487 14.3394 20.2474 14.7391C20.646 15.1377 20.8464 15.6264 20.8464 16.2064C20.8464 16.7853 20.646 17.2741 20.2474 17.6727C19.8487 18.0724 19.359 18.2717 18.7801 18.2717C18.2011 18.2717 17.7123 18.0724 17.3127 17.6727ZM31.3742 17.7318C31.0457 19.9934 30.0681 21.9576 28.4405 23.6243C28.08 23.9918 27.7394 24.2112 27.4189 24.2813C27.2156 24.3284 26.879 24.3474 26.4093 24.3404C25.0872 24.3164 23.9373 24.1912 22.9587 23.9648C22.7244 23.9097 22.5992 23.7885 22.5831 23.6002C22.5831 23.4911 22.8105 23.2877 23.2642 22.9902C26.6597 20.7837 28.7019 18.9368 29.391 17.4504C29.5863 17.0197 28.9563 15.8578 27.501 13.9638L29.391 11.3226C29.4611 11.2294 29.5282 11.2374 29.5903 11.3466C30.4116 12.7859 31.0147 13.6513 31.3983 13.9408C31.852 14.2924 32.4349 14.4686 33.147 14.4686H33.3463C33.9333 14.4686 34.2268 14.9654 34.2268 15.959V16.8164C34.2268 17.7869 33.9333 18.2717 33.3463 18.2717H33.0879C32.2586 18.2717 31.6877 18.0914 31.3742 17.7318ZM35.013 3.39987L37.0082 5.40711L35.013 7.40231L33.0058 5.40711L35.013 3.39987ZM39.0395 3.39987L41.0347 5.40711L39.0395 7.40231L37.0443 5.40711L39.0395 3.39987ZM41.891 18.2717H41.6447C40.1352 18.2717 38.9653 17.6107 38.135 16.2885C37.2666 17.6107 35.9996 18.2717 34.333 18.2717H33.2292C32.6423 18.2717 32.3488 17.7088 32.3488 16.581V16.1944C32.3488 15.0436 32.6423 14.4686 33.2292 14.4686H34.0395C36.0427 14.4686 37.0984 13.8897 37.2085 12.7318L37.4309 10.4782H39.1096L39.344 12.6968C39.4622 13.8777 40.2324 14.4686 41.6566 14.4686H41.891C42.478 14.4686 42.7715 14.9654 42.7715 15.959V16.8164C42.7715 17.7869 42.478 18.2717 41.891 18.2717ZM51.833 1.26449L53.735 3.16555L51.833 5.06654L49.9199 3.16555L51.833 1.26449ZM51.6687 6.17036L49.7676 8.08339L47.8656 6.17036L49.7676 4.2693L51.6687 6.17036ZM51.9862 6.17036L53.8993 4.2693L55.8003 6.17036L53.8993 8.08339L51.9862 6.17036ZM62.2676 18.2717H61.9161C60.1002 18.2717 58.8482 17.6497 58.1601 16.4057C57.4009 17.6497 56.5595 18.2717 55.636 18.2717C54.2819 18.2717 53.2733 17.6337 52.6082 16.3587C51.8019 17.6337 50.8904 18.2717 49.8728 18.2717C48.4725 18.2717 47.4359 17.6537 46.7628 16.4167C45.8233 17.6537 44.6064 18.2717 43.112 18.2717H41.7738C41.1869 18.2717 40.8935 17.7088 40.8935 16.581V16.1944C40.8935 15.0436 41.1869 14.4686 41.7738 14.4686H42.9597C44.8137 14.4686 45.8043 13.8266 45.9295 12.5435L46.1048 10.8418H47.7834L47.9477 12.5786C48.0649 13.8236 48.703 14.4456 49.8608 14.4456C50.9255 14.4536 51.5204 13.8306 51.6456 12.5786L51.8099 10.8298H53.4886L53.6529 12.5084C53.7851 13.7995 54.3961 14.4496 55.4838 14.4566C56.5245 14.4726 57.0994 13.7845 57.2086 12.3913L57.3498 10.4782H59.1336L59.2628 12.2971C59.373 13.7444 60.2604 14.4686 61.9271 14.4686H62.2676C62.8546 14.4686 63.1481 14.9654 63.1481 15.959V16.8164C63.1481 17.7869 62.8546 18.2717 62.2676 18.2717ZM63.6759 20.4202L65.6721 22.4264L63.6759 24.4225L61.6697 22.4264L63.6759 20.4202ZM67.7024 20.4202L69.6975 22.4264L67.7024 24.4225L65.7072 22.4264L67.7024 20.4202ZM70.8123 18.2717H70.5659C69.0555 18.2717 67.8866 17.6107 67.0563 16.2885C66.1879 17.6107 64.9209 18.2717 63.2543 18.2717H62.1505C61.5636 18.2717 61.2701 17.7088 61.2701 16.581V16.1944C61.2701 15.0436 61.5636 14.4686 62.1505 14.4686H62.9608C64.964 14.4686 66.0196 13.8897 66.1298 12.7318L66.3522 10.4782H68.0309L68.2653 12.6968C68.3834 13.8777 69.1536 14.4686 70.5779 14.4686H70.8123C71.3992 14.4686 71.6927 14.9654 71.6927 15.959V16.8164C71.6927 17.7869 71.3992 18.2717 70.8123 18.2717ZM73.3834 20.2789L75.4728 22.3683L73.3834 24.4576L71.2941 22.3683L73.3834 20.2789ZM70.6951 18.2717C70.1082 18.2717 69.8147 17.7088 69.8147 16.581V16.1944C69.8147 15.0436 70.1082 14.4686 70.6951 14.4686H71.9041C73.2893 14.4686 74.1858 14.1751 74.5924 13.5882C74.6936 13.4319 74.7015 13.1345 74.6154 12.6968C74.5222 12.196 74.1897 11.2765 73.6178 9.93835L75.3316 7.75486C75.5739 7.44937 75.7893 7.44937 75.9776 7.75486C76.838 9.20218 77.2687 10.6034 77.2687 11.9566C77.2687 13.8897 76.842 15.4081 75.9886 16.5109C75.0892 17.6848 73.6769 18.2717 71.7519 18.2717H70.6951ZM92.457 3.56413L94.4522 5.57138L92.457 7.56657L90.4498 5.57138L92.457 3.56413ZM96.4824 3.56413L98.4786 5.57138L96.4824 7.56657L94.4872 5.57138L96.4824 3.56413ZM87.7965 8.41192C87.3037 10.3761 87.3198 11.7613 87.8436 12.5676C88.6268 13.7645 90.5479 14.4065 93.6068 14.4926C97.7234 14.6098 100.427 14.093 101.718 12.9432C101.96 12.7158 102.038 12.4614 101.952 12.18C101.64 11.1784 101.252 10.1888 100.79 9.21019L102.492 7.07378C102.735 6.7763 102.962 6.81934 103.173 7.20295C103.947 8.58817 104.331 9.98543 104.323 11.3937C104.316 12.7939 104.077 13.8977 103.608 14.704C102.238 17.0818 99.1317 18.2717 94.2879 18.2717C91.3302 18.2717 89.1386 17.8801 87.7144 17.0978C86.0637 16.1904 85.2384 14.6609 85.2384 12.5084C85.2464 10.983 85.637 9.45258 86.4123 7.91913L87.7965 8.41192ZM117.352 16.4988C115.529 18.0804 112.442 18.7885 108.091 18.6242C107.919 17.7398 107.778 17.0427 107.668 16.5349C107.559 15.963 107.52 15.6465 107.551 15.5834C107.629 15.3881 107.982 15.2789 108.608 15.2548C110.039 15.2158 111.166 15.0986 111.988 14.9033L106.471 3.96382L109.006 2.22599L114.523 14.1401C115.822 13.3498 116.46 12.4384 116.436 11.4057C116.35 8.29074 116.159 5.0746 115.861 1.75729L118.468 0.125648C118.928 -0.155803 119.164 0.0354782 119.172 0.700543L119.242 10.5363C119.265 13.4009 118.635 15.3881 117.352 16.4988ZM129.653 18.2597C129.168 20.373 128.209 22.1609 126.777 23.6243C126.417 23.9918 126.077 24.2112 125.756 24.2813C125.553 24.3284 125.216 24.3474 124.747 24.3404C123.425 24.3164 122.274 24.1912 121.296 23.9648C121.061 23.9097 120.936 23.7885 120.921 23.6002C120.921 23.4911 121.147 23.2877 121.601 22.9902C124.903 20.8458 126.836 19.2773 127.399 18.2837H126.366C124.653 18.2597 123.46 17.8841 122.786 17.1569C121.949 16.2565 121.863 14.6639 122.528 12.3793C122.889 11.1433 123.373 10.2388 123.983 9.6679C124.477 9.21417 125.083 8.97979 125.803 8.96377C127.243 8.91669 128.303 9.68795 128.984 11.2765C129.445 12.3562 129.716 13.4199 129.794 14.4686H131.12C131.707 14.4686 132 14.9654 132 15.959V16.8164C132 17.7939 131.707 18.2797 131.12 18.2717L129.653 18.2597ZM127.692 14.5157C127.247 12.7158 126.413 11.9095 125.192 12.0978C124.708 12.1759 124.367 12.5005 124.172 13.0724C123.897 13.9097 124.266 14.3825 125.274 14.4926C125.814 14.5547 126.304 14.5748 126.742 14.5507L127.692 14.5157ZM152.365 18.2717H152.036C150.464 18.2717 149.012 17.7278 147.681 16.6401C146.172 17.7438 144.305 18.2947 142.083 18.2947H139.336C137.74 18.2947 136.359 17.6147 135.193 16.2525C134.176 17.5986 132.908 18.2717 131.39 18.2717H131.003C130.416 18.2717 130.122 17.7088 130.122 16.581V16.1944C130.122 15.0436 130.416 14.4686 131.003 14.4686H131.167C133.108 14.4686 134.129 13.8266 134.231 12.5435L134.383 10.6304H135.992L136.167 12.5435C136.269 13.6783 136.79 14.3163 137.728 14.4566C138.441 13.4399 139.215 12.4734 140.052 11.5579C142.306 9.06896 144.466 7.82895 146.532 7.83696C148.214 7.83696 149.399 8.48601 150.088 9.78509C150.401 10.364 150.558 10.975 150.558 11.616C150.565 12.219 150.456 12.814 150.228 13.4009C150.103 13.7294 149.935 14.085 149.725 14.4686H152.365C152.952 14.4686 153.245 14.9654 153.245 15.959V16.8164C153.245 17.7869 152.952 18.2717 152.365 18.2717ZM139.629 14.4686H143.151C145.827 14.4686 147.404 14.2533 147.882 13.8236C148.171 13.5572 148.276 13.2016 148.198 12.7549C148.003 11.6521 147.138 11.1122 145.604 11.1353C143.828 11.1583 141.837 12.2701 139.629 14.4686ZM166.744 10.1968C166.947 10.2118 167.233 10.2198 167.6 10.2198C167.733 10.2198 167.772 10.2939 167.717 10.4432L166.779 13.0954C166.309 13.1505 165.55 13.4399 164.501 13.9638C164.792 14.3003 165.421 14.4686 166.391 14.4686H168.997C169.584 14.4686 169.878 14.9654 169.878 15.959V16.8164C169.878 17.7869 169.584 18.2717 168.997 18.2717H167.882C164.768 18.2717 163.003 17.1289 162.588 14.8442C161.611 15.4782 160.609 16.0732 159.583 16.6281C157.565 17.7238 155.538 18.2717 153.504 18.2717H152.248C151.661 18.2717 151.367 17.7088 151.367 16.581V16.1944C151.367 15.0436 151.661 14.4686 152.248 14.4686H153.785C155.977 14.4686 157.952 14.105 159.713 13.3768L162.635 12.1679C161.736 11.8865 160.796 11.566 159.819 11.2054C158.715 10.7987 157.843 10.5954 157.201 10.5954C156.223 10.5954 155.3 11.1193 154.431 12.1679L153.187 11.5229L153.292 11.2525C154.271 8.72542 155.624 7.4143 157.354 7.32015C158.339 7.26606 159.639 7.61364 161.25 8.36485C163.637 9.47663 165.468 10.0866 166.744 10.1968ZM168.891 18.2717C168.304 18.2717 168.011 17.7088 168.011 16.581V16.1944C168.011 15.0436 168.304 14.4686 168.891 14.4686H169.197C170.285 14.4686 171.208 13.9448 171.967 12.8961C172.867 11.6441 173.645 10.7046 174.303 10.0786C174.897 9.53071 175.566 9.25324 176.31 9.24522C176.803 9.24522 177.288 9.37848 177.766 9.64491C178.868 10.2789 179.561 11.2725 179.843 12.6256C180.274 14.6609 179.819 16.3276 178.481 17.6256C178.074 18.0173 177.659 18.2947 177.237 18.46C176.893 18.5922 176.509 18.6002 176.087 18.483C174.983 18.1695 173.747 17.4073 172.378 16.1944C171.251 17.5796 170.175 18.2717 169.15 18.2717H168.891ZM174.267 13.459C175.457 14.696 176.403 15.322 177.107 15.337C177.421 15.337 177.647 15.2589 177.789 15.1026C177.945 14.9384 177.98 14.6098 177.895 14.117C177.816 13.6473 177.647 13.2126 177.39 12.814C177.076 12.3442 176.764 12.0507 176.45 11.9335C176.185 11.8314 175.954 11.8514 175.758 11.9916C175.257 12.3522 174.761 12.841 174.267 13.459Z" fill="#FADADD"/>
</svg>
