<svg width="200" height="29" viewBox="0 0 200 29" fill="none" xmlns="http://www.w3.org/2000/svg">
<path d="M4.04935 18.5296C4.04935 18.6369 4.03932 18.7983 4.03932 19.0138C4.03932 19.3265 4.04937 19.7575 4.06942 20.3057C4.07944 22.3023 5.5628 23.3006 8.52963 23.3006C11.3661 23.3006 12.7894 22.0427 12.7894 19.5279V11.5255C12.7894 9.3826 13.5011 8.31013 14.9143 8.31013C16.3977 8.32015 17.1395 9.18616 17.1395 10.9091V14.1686C17.1295 15.4605 17.1194 16.3656 17.1194 16.8848C17.1194 17.4131 17.1194 17.9904 17.1094 18.6169C17.0994 19.2343 17.0893 19.542 17.0793 19.542C16.8889 22.4196 16.0971 24.4021 14.7039 25.4886C13.2605 26.6633 11.2559 27.2507 8.68 27.2507C5.9838 27.2507 3.86897 26.7315 2.32542 25.6941C0.771843 24.6667 0 22.8746 0 20.3207V18.5877C0.0701614 16.2584 0.471147 14.7018 1.19281 13.919C2.06481 12.7052 3.07707 11.9565 4.24976 11.6728C4.67073 11.5846 5.05163 11.5406 5.40244 11.5406C6.21431 11.5406 6.86588 11.7701 7.35701 12.2302C7.88823 12.7103 8.14875 13.2335 8.14875 13.8018C8.14875 14.0072 8.10866 14.2177 8.02847 14.4332C7.7779 15.2451 7.17658 15.651 6.21437 15.651C4.94144 15.651 4.21974 16.6102 4.04935 18.5296ZM9.10101 10.6746C7.77797 10.6746 7.10643 10.0481 7.10643 8.79525C7.10643 7.53235 7.77797 6.90088 9.10101 6.90088C10.4241 6.90088 11.0856 7.53235 11.0856 8.79525C11.0856 10.0481 10.4241 10.6746 9.10101 10.6746ZM24.0353 3.12719L24.0253 12.9207C24.0755 14.9955 24.9876 16.0579 26.7817 16.1071H27.5433V20.0561H26.1902C26.0299 20.0662 25.8595 20.0712 25.6991 20.0712C23.9451 20.0712 22.602 19.6402 21.6598 18.7792C20.3668 17.6135 19.7154 15.7442 19.7154 13.1703L19.7054 3.28857C19.7454 1.09653 20.4671 0 21.8603 0H21.8904C23.3137 0.0200461 24.0252 1.06244 24.0353 3.12719ZM35.8224 15.5638C36.4538 15.3573 36.7646 14.8001 36.7646 13.89V13.8599C36.7546 12.6661 36.2234 12.0688 35.181 12.0688C34.1186 12.0688 33.5973 12.6661 33.5973 13.8599L33.5772 16.1071C33.3567 18.7401 32.2142 20.0561 30.1494 20.0561H26.9721V16.1071H28.2951C29.1771 16.1071 29.6182 15.5678 29.6182 14.4913C29.6182 13.2585 29.7084 12.2452 29.8788 11.4524C30.2997 9.48484 32.0237 8.40834 35.0507 8.22191H35.0907C38.5487 8.22191 40.433 9.58304 40.7638 12.3043C40.8239 12.9007 40.864 13.469 40.864 14.0073C40.864 15.8866 40.443 17.3399 39.6011 18.3673C38.709 19.2874 37.6366 19.7474 36.3737 19.7474C36.083 19.7474 35.7923 19.7234 35.4917 19.6743C34.4292 19.3906 33.9081 18.6759 33.9081 17.5303C33.9081 17.5113 33.9081 17.4872 33.9181 17.4571C33.9381 16.2734 34.5695 15.642 35.8224 15.5638ZM54.0644 19.1751C54.0644 19.1951 54.0544 19.2192 54.0443 19.2482C53.5933 21.324 52.8516 22.9438 51.8192 24.1085C50.7768 25.2832 49.4638 26.1341 47.8701 26.6633C47.4491 26.7515 47.0583 26.7956 46.7075 26.7956C45.8956 26.7956 45.2441 26.5651 44.7529 26.105C44.2217 25.6259 43.9611 25.1018 43.9611 24.5345C43.9611 24.329 44.0012 24.1185 44.0814 23.903C44.342 23.2866 44.9534 22.8796 45.8956 22.6842C47.5594 22.4106 48.6419 21.9745 49.143 21.3772C50.2155 20.3107 50.8069 18.9255 50.9071 17.2226C50.9171 16.948 50.9171 16.6794 50.9171 16.4148C50.9171 15.1038 50.7268 14.0413 50.3359 13.2284C50.1053 12.6711 49.6342 12.3925 48.9125 12.3925C47.8601 12.3925 47.3289 12.9889 47.3189 14.1836V14.2127C47.3189 15.1228 47.6396 15.6811 48.261 15.8866C49.5139 15.9648 50.1554 16.5962 50.1755 17.7799C50.1855 17.81 50.1855 17.834 50.1855 17.854C50.1855 18.9987 49.6542 19.7133 48.6018 19.997C48.3011 20.0461 48.0004 20.0712 47.7197 20.0712C46.4568 20.0712 45.3844 19.6111 44.4923 18.691C43.6504 17.6626 43.2294 16.2093 43.2294 14.33C43.2294 13.7917 43.2595 13.2244 43.3296 12.6271C43.6504 9.9058 45.5448 8.54565 48.9927 8.54565H49.0428C51.6087 8.70201 53.2325 9.49987 53.9341 10.9382C54.3049 11.8783 54.4853 12.9258 54.4853 14.0804C54.4853 14.2859 54.4854 14.4964 54.4754 14.7119C54.6057 15.642 55.1769 16.1071 56.1793 16.1071H56.3997V20.0561H56.3397C55.6481 20.0271 54.8963 19.7334 54.0644 19.1751ZM54.9864 5.09472C54.9864 3.83182 55.6481 3.20139 56.9811 3.20139C58.3042 3.20139 58.9657 3.83182 58.9657 5.09472C58.9657 6.34761 58.3042 6.97405 56.9811 6.97405C55.6481 6.97405 54.9864 6.34761 54.9864 5.09472ZM59.3365 5.10977C59.3365 3.84687 59.998 3.2154 61.3311 3.2154C62.6542 3.2154 63.3157 3.84687 63.3157 5.10977C63.3157 6.36266 62.6542 6.9891 61.3311 6.9891C59.998 6.9891 59.3365 6.36266 59.3365 5.10977ZM55.7783 16.1071H56.3497C59.4167 16.1071 60.9502 14.8782 60.9502 12.4216V10.7768C60.9502 9.13302 61.6518 8.31013 63.045 8.31013C64.338 8.31013 64.9896 9.13704 64.9896 10.7918V12.5539C64.9896 15.2651 64.2177 17.1785 62.6842 18.2941C61.0504 19.4688 58.9957 20.0561 56.5401 20.0561H55.7783V16.1071ZM74.8923 18.6759V18.3823C74.9124 17.5795 74.9223 15.5878 74.9223 12.4065C74.9223 10.9091 75.5638 10.1554 76.8468 10.1453H77.0673C78.1999 10.1453 78.8313 10.9532 78.9516 12.5679C78.9616 12.9989 78.9616 13.4249 78.9616 13.8459C78.9616 14.3149 78.9516 14.775 78.9215 15.2261C78.9315 15.3724 78.9315 15.5247 78.9315 15.6811C78.9315 16.7966 78.8012 18.2109 78.5406 19.9238C78.28 21.6368 77.5284 23.1001 76.2655 24.3139C75.0026 25.5277 73.7296 26.3105 72.4567 26.6633C72.0357 26.7515 71.6548 26.7956 71.294 26.7956C70.4821 26.7956 69.8307 26.5651 69.3496 26.105C68.8183 25.6259 68.5577 25.1018 68.5577 24.5345C68.5577 24.329 68.5877 24.1185 68.6679 23.903C68.9386 23.2866 69.54 22.8796 70.4922 22.6842C72.156 22.4106 73.2385 21.9745 73.7397 21.3772C74.4312 20.7607 74.8222 19.8607 74.8923 18.6759ZM81.728 3.28857C81.7581 1.09653 82.4797 0 83.883 0H83.9131C85.3263 0.0200461 86.0479 1.06244 86.0579 3.12719V16.9289C86.0479 18.9937 85.3263 20.0361 83.9131 20.0561H83.883C82.4797 20.0561 81.7581 18.9596 81.728 16.7676V3.28857ZM94.6477 16.1071H96.5921V20.0561H95.7904C95.4295 20.0561 95.1389 20.1293 94.9184 20.2766C94.6277 20.4921 94.4573 20.9662 94.4072 21.7009C94.3671 22.3755 94.2869 23.037 94.1767 23.6825C93.896 24.8862 93.2144 25.9437 92.1219 26.8538C90.6686 27.8721 89.2753 28.3813 87.9523 28.3813H87.4211C86.048 28.3813 85.226 28.2049 84.9554 27.8521C84.7549 27.8521 84.5244 27.4221 84.2438 26.5601V26.091C84.2438 25.2681 84.7951 24.6617 85.8976 24.2698C86.058 24.2698 86.2183 24.2508 86.3586 24.2117C86.7395 24.2508 87.0904 24.2698 87.4211 24.2698H87.7719C88.5838 24.2698 89.3054 23.8779 89.9469 23.0951C90.2576 22.5859 90.418 21.9896 90.418 21.304C90.418 20.6194 90.4682 20.0321 90.5584 19.542L90.7086 18.8083C91.5004 17.0071 92.8135 16.1071 94.6477 16.1071ZM91.0194 9.05886C92.3424 9.05886 93.0039 9.6853 93.0039 10.9382C93.0039 12.2011 92.3424 12.8326 91.0194 12.8326C89.6863 12.8326 89.0248 12.2011 89.0248 10.9382C89.0248 9.6853 89.6863 9.05886 91.0194 9.05886ZM102.646 16.1071C103.518 16.0188 103.949 15.3042 103.949 13.9631C103.949 13.8549 103.949 13.6985 103.939 13.4931C103.829 12.142 103.288 11.4674 102.305 11.4674C102.185 11.4674 102.055 11.4764 101.945 11.4965C101.163 11.5847 100.732 12.2352 100.631 13.449C100.621 13.6544 100.621 13.8118 100.621 13.919C100.621 15.3573 101.153 16.087 102.235 16.1071H102.646ZM97.7749 16.1071C97.4642 15.4997 97.3139 14.8151 97.3139 14.0513C97.3139 12.3674 97.7148 10.9973 98.5066 9.93985C98.8874 9.43068 99.4186 9.04481 100.09 8.7802C99.9899 8.73109 99.8998 8.67695 99.8096 8.61882C99.2684 8.33517 98.9276 8.05054 98.7872 7.76689C98.5467 7.41508 98.4365 7.06225 98.4365 6.71044C98.4365 6.30852 98.5767 5.87752 98.8674 5.41847C99.2583 4.84014 99.7996 4.55148 100.521 4.55148C100.832 4.55148 101.173 4.60057 101.544 4.69879C102.616 4.88422 104.971 5.92165 108.61 7.81099C111.426 9.20119 113.03 11.1296 113.421 13.5963V13.6544C113.391 16.1602 112.679 17.8731 111.296 18.7932C110.033 19.6352 108.319 20.0561 106.164 20.0561H95.9807V16.1071H97.7749ZM107.267 16.092C108.73 16.0038 109.512 15.4555 109.622 14.4472V14.2858C109.622 13.4048 108.84 12.612 107.287 11.9074C107.618 12.5338 107.788 13.2044 107.788 13.919C107.788 14.0173 107.778 14.1145 107.768 14.2127C107.718 15.0446 107.557 15.671 107.267 16.092ZM126.11 14.9765C126.16 16.0529 126.18 16.973 126.18 17.7368C126.16 19.2833 125.709 20.0561 124.827 20.0561C124.637 20.0561 124.416 20.017 124.186 19.9389C123.013 19.567 122.331 17.5995 122.161 14.0363C122.141 13.5963 122.121 13.1312 122.111 12.6421C122.051 8.19789 121.62 5.33926 120.808 4.06734C120.517 3.60728 120.367 3.23042 120.367 2.93675C120.367 2.42758 120.818 2.17303 121.72 2.17303C123.133 2.17303 124.236 2.78543 125.017 4.00824C125.799 5.22203 126.2 6.67136 126.2 8.35424C126.29 10.0481 126.732 10.8941 127.513 10.8941C128.275 10.8941 128.646 10.4099 128.646 9.44072C128.646 9.14704 128.616 8.80928 128.546 8.4274C128.546 6.79364 128.135 5.33926 127.323 4.06734C127.032 3.60728 126.882 3.23042 126.882 2.93675C126.882 2.42758 127.333 2.17303 128.235 2.17303C129.658 2.17303 130.761 2.78543 131.543 4.00824C132.324 5.22203 132.715 7.34086 132.715 10.3658C132.264 13.4589 130.931 15.0055 128.716 15.0055C128.486 15.0055 128.235 14.9855 127.974 14.9464C127.193 14.9464 126.561 14.7068 126.08 14.2277C126.09 14.4813 126.1 14.7319 126.11 14.9765ZM135.281 12.4797C135.281 11.1787 135.572 10.0962 136.133 9.23523C136.714 8.36422 137.827 7.92827 139.481 7.92827H140.202C141.886 7.94831 143.009 8.37426 143.58 9.20617C144.162 10.0381 144.442 11.0414 144.442 12.2161C144.442 12.7052 144.402 13.2244 144.332 13.7717C144.071 15.5828 142.728 16.5471 140.293 16.6644C140.012 16.6844 139.762 16.6944 139.531 16.6944C138.338 16.6944 137.336 16.3175 136.514 15.5638C135.692 14.8001 135.281 13.7717 135.281 12.4797ZM138.789 12.3184C138.789 13.0721 139.15 13.449 139.862 13.449C140.593 13.449 140.954 13.0721 140.954 12.3184C140.954 11.5646 140.593 11.1877 139.862 11.1877C139.15 11.1877 138.789 11.5646 138.789 12.3184ZM147.028 12.4797C147.028 11.1787 147.309 10.0962 147.88 9.23523C148.461 8.36422 149.574 7.92827 151.228 7.92827H151.95C153.633 7.94831 154.756 8.37426 155.327 9.20617C155.899 10.0381 156.189 11.0414 156.189 12.2161C156.189 12.7052 156.149 13.2244 156.069 13.7717C155.818 15.5828 154.475 16.5471 152.04 16.6644C151.759 16.6844 151.508 16.6944 151.268 16.6944C150.085 16.6944 149.083 16.3175 148.261 15.5638C147.439 14.8001 147.028 13.7717 147.028 12.4797ZM150.536 12.3184C150.536 13.0721 150.897 13.449 151.609 13.449C152.33 13.449 152.701 13.0721 152.701 12.3184C152.701 11.5646 152.33 11.1877 151.609 11.1877C150.897 11.1877 150.536 11.5646 150.536 12.3184ZM160.008 17.6336C160.509 16.8407 161.111 16.4438 161.812 16.4438C162.173 16.4438 162.564 16.547 162.985 16.7525L163.045 16.7816C164.208 17.3789 164.779 18.2259 164.779 19.3225C164.779 19.4197 164.779 19.5229 164.769 19.6302C164.689 20.6585 164.308 21.8473 163.636 23.1984C163.496 23.482 163.346 23.7707 163.165 24.0644C162.604 25.0436 161.962 25.5327 161.241 25.5327C160.95 25.5327 160.64 25.4546 160.319 25.2972C160.038 25.1609 159.747 24.9644 159.467 24.7108C159.006 24.2698 158.775 23.8488 158.775 23.4479C158.775 23.2715 158.815 23.0951 158.905 22.9187C159.196 22.3715 159.898 21.8473 161.04 21.3481C161.451 21.1226 161.702 20.9171 161.782 20.7317C161.802 20.6826 161.812 20.6385 161.812 20.5994C161.812 20.4821 161.732 20.3789 161.562 20.2907C161.431 20.2225 161.231 20.1594 160.96 20.1002C160.76 20.0411 160.579 19.9729 160.419 19.8948C159.868 19.6201 159.597 19.2483 159.597 18.7792C159.597 18.5246 159.677 18.245 159.828 17.9423C159.878 17.834 159.938 17.7318 160.008 17.6336ZM167.345 12.4797C167.345 11.1787 167.636 10.0962 168.197 9.23523C168.778 8.36422 169.891 7.92827 171.545 7.92827H172.266C173.95 7.94831 175.073 8.37426 175.644 9.20617C176.225 10.0381 176.516 11.0414 176.516 12.2161C176.516 12.7052 176.476 13.2244 176.396 13.7717C176.135 15.5828 174.792 16.5471 172.356 16.6644C172.086 16.6844 171.825 16.6944 171.595 16.6944C170.412 16.6944 169.41 16.3175 168.588 15.5638C167.756 14.8001 167.345 13.7717 167.345 12.4797ZM170.863 12.3184C170.863 13.0721 171.214 13.449 171.935 13.449C172.657 13.449 173.018 13.0721 173.018 12.3184C173.018 11.5646 172.657 11.1877 171.935 11.1877C171.214 11.1877 170.863 11.5646 170.863 12.3184ZM179.092 12.4797C179.092 11.1787 179.383 10.0962 179.944 9.23523C180.525 8.36422 181.638 7.92827 183.292 7.92827H184.013C185.697 7.94831 186.82 8.37426 187.391 9.20617C187.972 10.0381 188.253 11.0414 188.253 12.2161C188.253 12.7052 188.223 13.2244 188.143 13.7717C187.882 15.5828 186.539 16.5471 184.103 16.6644C183.833 16.6844 183.572 16.6944 183.342 16.6944C182.159 16.6944 181.147 16.3175 180.325 15.5638C179.503 14.8001 179.092 13.7717 179.092 12.4797ZM182.6 12.3184C182.6 13.0721 182.961 13.449 183.672 13.449C184.404 13.449 184.765 13.0721 184.765 12.3184C184.765 11.5646 184.404 11.1877 183.672 11.1877C182.961 11.1877 182.6 11.5646 182.6 12.3184ZM190.839 12.4797C190.839 11.1787 191.13 10.0962 191.691 9.23523C192.272 8.36422 193.385 7.92827 195.039 7.92827H195.76C197.444 7.94831 198.567 8.37426 199.138 9.20617C199.709 10.0381 200 11.0414 200 12.2161C200 12.7052 199.96 13.2244 199.89 13.7717C199.629 15.5828 198.286 16.5471 195.85 16.6644C195.57 16.6844 195.319 16.6944 195.089 16.6944C193.896 16.6944 192.894 16.3175 192.072 15.5638C191.25 14.8001 190.839 13.7717 190.839 12.4797ZM194.347 12.3184C194.347 13.0721 194.708 13.449 195.42 13.449C196.151 13.449 196.512 13.0721 196.512 12.3184C196.512 11.5646 196.151 11.1877 195.42 11.1877C194.708 11.1877 194.347 11.5646 194.347 12.3184Z" fill="#FADADD"/>
</svg>
