<svg width="194" height="29" viewBox="0 0 194 29" fill="none" xmlns="http://www.w3.org/2000/svg">
<path d="M4.06317 18.5792C4.05312 18.6868 4.04809 18.8486 4.04809 19.0647C4.04809 19.3782 4.05814 19.8104 4.07723 20.3601C4.08728 22.362 5.5797 23.363 8.55346 23.363C11.3996 23.363 12.8227 22.1017 12.8227 19.5802V11.5564C12.8227 9.40772 13.5342 8.33238 14.9572 8.33238C16.4386 8.34243 17.1803 9.21076 17.1803 10.9383V14.2065C17.1702 15.5019 17.1652 16.4095 17.1652 16.93C17.1652 17.4597 17.1602 18.0386 17.1501 18.6667C17.1401 19.2858 17.131 19.5943 17.121 19.5943C16.9341 22.4796 16.1391 24.4674 14.7361 25.5569C13.293 26.7347 11.281 27.3236 8.70019 27.3236C6.00179 27.3236 3.87624 26.8031 2.32554 25.7629C0.774842 24.7328 0 22.9358 0 20.3751V18.6375C0.0683392 16.3019 0.466304 14.7412 1.19191 13.9563C2.06524 12.7393 3.08632 11.9885 4.25412 11.7041C4.67621 11.6157 5.06414 11.5715 5.41689 11.5715C6.23193 11.5715 6.88416 11.8016 7.3756 12.2629C7.90523 12.7443 8.17055 13.2689 8.17055 13.8387C8.17055 14.0447 8.13136 14.2558 8.05298 14.4719C7.79771 15.2859 7.18868 15.6929 6.22691 15.6929C4.95158 15.6929 4.23 16.6547 4.06317 18.5792ZM9.12731 10.7032C7.79268 10.7032 7.12537 10.075 7.12537 8.8188C7.12537 7.55251 7.79268 6.91936 9.12731 6.91936C10.4519 6.91936 11.1142 7.55251 11.1142 8.8188C11.1142 10.075 10.4519 10.7032 9.12731 10.7032ZM24.0986 3.13556L24.0846 12.9553C24.1328 15.0356 25.0554 16.1009 26.8523 16.1502H27.6171V20.1098H26.2634C26.0965 20.1199 25.9297 20.1249 25.7629 20.1249C24.0062 20.1249 22.6565 19.6928 21.7138 18.8295C20.4184 17.6607 19.7711 15.7864 19.7711 13.2056L19.7561 3.29737C19.7953 1.09946 20.5168 0 21.9198 0H21.95C23.373 0.0200998 24.0896 1.06528 24.0986 3.13556ZM35.9203 15.6055C36.5484 15.3985 36.863 14.8397 36.863 13.9272V13.897C36.8529 12.7 36.3223 12.1011 35.2721 12.1011C34.2128 12.1011 33.6822 12.7 33.6822 13.897L33.6681 16.1502C33.442 18.7903 32.2943 20.1098 30.223 20.1098H27.0432V16.1502H28.3678C29.2512 16.1502 29.6934 15.6095 29.6934 14.5301C29.6934 13.294 29.7818 12.278 29.9577 11.483C30.3798 9.51023 32.1074 8.43085 35.1404 8.24393H35.1847C38.6488 8.24393 40.5433 9.6087 40.8669 12.3372C40.9352 12.9352 40.9694 13.5051 40.9694 14.0448C40.9694 15.9291 40.5473 17.3863 39.7041 18.4164C38.8107 19.339 37.7313 19.8003 36.465 19.8003C36.1806 19.8003 35.8861 19.7762 35.5816 19.727C34.5214 19.4425 33.9917 18.7259 33.9917 17.5772C33.9917 17.5581 33.9968 17.534 34.0068 17.5039C34.0259 16.317 34.6641 15.6839 35.9203 15.6055ZM54.2041 19.2264C54.2041 19.2465 54.199 19.2706 54.19 19.2998C53.7387 21.3811 52.9921 23.0052 51.9519 24.173C50.9117 25.3509 49.5922 26.2041 47.9922 26.7347C47.5701 26.8231 47.1822 26.8674 46.8284 26.8674C46.0144 26.8674 45.3622 26.6362 44.8707 26.1749C44.3411 25.6945 44.0758 25.169 44.0758 24.6001C44.0758 24.3941 44.115 24.1831 44.1934 23.967C44.4587 23.3489 45.0677 22.9409 46.0194 22.7449C47.6877 22.4706 48.7721 22.0334 49.2726 21.4344C50.3519 20.3651 50.9409 18.9762 51.0394 17.2687C51.0494 16.9933 51.0544 16.724 51.0544 16.4587C51.0544 15.1442 50.8575 14.0789 50.4655 13.2638C50.2394 12.7051 49.763 12.4257 49.0374 12.4257C47.9872 12.4257 47.4576 13.0236 47.4475 14.2216V14.2507C47.4475 15.1633 47.7611 15.7231 48.3892 15.9291C49.6454 16.0075 50.2836 16.6406 50.3037 17.8275C50.3128 17.8577 50.3178 17.8818 50.3178 17.9019C50.3178 19.0496 49.7881 19.7661 48.7279 20.0505C48.4234 20.0998 48.1289 20.1249 47.8445 20.1249C46.5782 20.1249 45.4989 19.6636 44.6064 18.741C43.7622 17.7099 43.3401 16.2527 43.3401 14.3683C43.3401 13.8286 43.3743 13.2598 43.4426 12.6609C43.7673 9.93233 45.6607 8.56854 49.1259 8.56854H49.1701C51.7408 8.72531 53.375 9.52531 54.0724 10.9675C54.4453 11.9101 54.6312 12.9604 54.6312 14.1181C54.6312 14.3241 54.6262 14.5352 54.6171 14.7513C54.7538 15.6839 55.3236 16.1502 56.3246 16.1502H56.5447V20.1098H56.4864C55.799 20.0807 55.0382 19.7862 54.2041 19.2264ZM55.1317 5.10837C55.1317 3.84208 55.799 3.20996 57.1336 3.20996C58.4592 3.20996 59.1215 3.84208 59.1215 5.10837C59.1215 6.3646 58.4592 6.99272 57.1336 6.99272C55.799 6.99272 55.1317 6.3646 55.1317 5.10837ZM59.4893 5.12346C59.4893 3.85717 60.1566 3.22401 61.4912 3.22401C62.8168 3.22401 63.4791 3.85717 63.4791 5.12346C63.4791 6.37969 62.8168 7.00781 61.4912 7.00781C60.1566 7.00781 59.4893 6.37969 59.4893 5.12346ZM55.9266 16.1502H56.5015C59.5727 16.1502 61.1083 14.9181 61.1083 12.4548V10.8057C61.1083 9.15747 61.8108 8.33238 63.2138 8.33238C64.5092 8.33238 65.1574 9.16151 65.1574 10.8207V12.5875C65.1574 15.306 64.3866 17.2245 62.846 18.3431C61.2068 19.5209 59.1556 20.1098 56.6924 20.1098H55.9266V16.1502ZM75.0948 18.726V18.4315C75.1139 17.6265 75.1239 15.6296 75.1239 12.4397C75.1239 10.9383 75.7661 10.1826 77.0525 10.1725H77.2726C78.4112 10.1725 79.0393 10.9825 79.1569 12.6016C79.167 13.0337 79.172 13.4608 79.172 13.8829C79.172 14.3533 79.1569 14.8146 79.1278 15.2668C79.1378 15.4136 79.1429 15.5663 79.1429 15.7231C79.1429 16.8416 79.0102 18.2596 78.7449 19.9772C78.4896 21.6947 77.7299 23.162 76.4636 24.379C75.1973 25.5961 73.926 26.3809 72.6506 26.7347C72.2285 26.8231 71.8406 26.8674 71.4879 26.8674C70.6728 26.8674 70.0206 26.6362 69.5291 26.1749C68.9995 25.6945 68.7342 25.169 68.7342 24.6001C68.7342 24.3941 68.7734 24.1831 68.8528 23.967C69.1171 23.3489 69.7261 22.9409 70.6778 22.7449C72.3461 22.4706 73.4305 22.0334 73.931 21.4344C74.6284 20.8163 75.0154 19.9138 75.0948 18.726ZM81.9397 3.29737C81.9789 1.09946 82.7005 0 84.1035 0H84.1336C85.5567 0.0200998 86.2733 1.06528 86.2823 3.13556V16.9743C86.2733 19.0446 85.5567 20.0897 84.1336 20.1098H84.1035C82.7005 20.1098 81.9789 19.0104 81.9397 16.8125V3.29737ZM94.8951 16.1502H96.8528V20.1098H96.0428C95.68 20.1098 95.3905 20.1832 95.1744 20.3309C94.88 20.547 94.7081 21.0224 94.6589 21.759C94.6197 22.4354 94.5413 23.0987 94.4237 23.7459C94.1483 24.9529 93.4619 26.0131 92.3625 26.9257C90.9103 27.9467 89.5163 28.4573 88.1817 28.4573H87.6521C86.2773 28.4573 85.4532 28.2804 85.1788 27.9267C84.9818 27.9267 84.7467 27.4955 84.4723 26.6312V26.1609C84.4723 25.3358 85.021 24.7277 86.1205 24.3348C86.2873 24.3348 86.4441 24.3157 86.5918 24.2765C86.9647 24.3157 87.3185 24.3348 87.6521 24.3348H88.0048C88.8199 24.3348 89.5455 23.9418 90.1837 23.1569C90.4982 22.6464 90.655 22.0485 90.655 21.361C90.655 20.6746 90.7042 20.0857 90.8017 19.5943L90.9495 18.8586C91.7444 17.0527 93.059 16.1502 94.8951 16.1502ZM91.258 9.08311C92.5836 9.08311 93.2459 9.71123 93.2459 10.9675C93.2459 12.2338 92.5836 12.8669 91.258 12.8669C89.9234 12.8669 89.2561 12.2338 89.2561 10.9675C89.2561 9.71123 89.9234 9.08311 91.258 9.08311ZM102.918 16.1502C103.791 16.0617 104.228 15.3452 104.228 14.0005C104.228 13.892 104.223 13.7352 104.213 13.5292C104.106 12.1745 103.561 11.4981 102.579 11.4981C102.452 11.4981 102.329 11.5072 102.211 11.5273C101.436 11.6157 100.999 12.2679 100.901 13.485C100.891 13.691 100.887 13.8488 100.887 13.9563C100.887 15.3985 101.426 16.1301 102.506 16.1502H102.918ZM98.0306 16.1502C97.7261 15.5412 97.5744 14.8547 97.5744 14.0889C97.5744 12.4005 97.9713 11.0267 98.7663 9.96647C99.1492 9.45593 99.6788 9.06903 100.356 8.80371C100.259 8.75447 100.165 8.70019 100.077 8.6419C99.5371 8.35749 99.1934 8.07209 99.0467 7.78768C98.8105 7.43493 98.6929 7.08116 98.6929 6.72841C98.6929 6.32541 98.8396 5.89326 99.1341 5.43298C99.517 4.8531 100.067 4.56367 100.783 4.56367C101.098 4.56367 101.441 4.61289 101.813 4.71138C102.894 4.8973 105.253 5.9375 108.895 7.83191C111.722 9.22583 113.331 11.1594 113.724 13.6327V13.6909C113.694 16.2034 112.983 17.921 111.589 18.8435C110.323 19.6877 108.61 20.1098 106.451 20.1098H96.2347V16.1502H98.0306ZM107.555 16.1351C109.017 16.0466 109.803 15.4969 109.911 14.4859V14.3241C109.911 13.4407 109.131 12.6458 107.57 11.9393C107.904 12.5674 108.07 13.2397 108.07 13.9563C108.07 14.0548 108.065 14.1522 108.055 14.2507C108.007 15.0849 107.84 15.713 107.555 16.1351ZM126.443 15.0166C126.492 16.0959 126.516 17.0185 126.516 17.7843C126.497 19.335 126.046 20.1098 125.162 20.1098C124.966 20.1098 124.75 20.0706 124.514 19.9922C123.336 19.6194 122.66 17.6466 122.483 14.0739C122.463 13.6327 122.449 13.1664 122.439 12.676C122.379 8.21984 121.943 5.35356 121.128 4.07823C120.834 3.61694 120.687 3.23907 120.687 2.94461C120.687 2.43408 121.138 2.17885 122.041 2.17885C123.464 2.17885 124.568 2.79289 125.353 4.01897C126.139 5.23601 126.531 6.68923 126.531 8.3766C126.492 10.7323 126.453 12.695 126.414 14.2658C126.424 14.5201 126.433 14.7713 126.443 15.0166ZM129.108 12.5131C129.108 11.2086 129.392 10.1232 129.961 9.25996C130.54 8.38662 131.66 7.9495 133.318 7.9495H134.039C135.728 7.9696 136.856 8.39668 137.425 9.23082C138.004 10.065 138.293 11.0709 138.293 12.2488C138.293 12.7392 138.254 13.2598 138.176 13.8085C137.921 15.6246 136.571 16.5914 134.128 16.709C133.852 16.7291 133.597 16.7391 133.362 16.7391C132.174 16.7391 131.168 16.3612 130.344 15.6055C129.52 14.8397 129.108 13.8085 129.108 12.5131ZM132.626 12.3514C132.626 13.1071 132.984 13.485 133.701 13.485C134.427 13.485 134.79 13.1071 134.79 12.3514C134.79 11.5956 134.427 11.2177 133.701 11.2177C132.984 11.2177 132.626 11.5956 132.626 12.3514ZM140.884 12.5131C140.884 11.2086 141.17 10.1232 141.739 9.25996C142.317 8.38662 143.436 7.9495 145.095 7.9495H145.817C147.504 7.9696 148.633 8.39668 149.203 9.23082C149.782 10.065 150.071 11.0709 150.071 12.2488C150.071 12.7392 150.032 13.2598 149.953 13.8085C149.698 15.6246 148.348 16.5914 145.904 16.709C145.63 16.7291 145.375 16.7391 145.139 16.7391C143.952 16.7391 142.946 16.3612 142.121 15.6055C141.297 14.8397 140.884 13.8085 140.884 12.5131ZM144.403 12.3514C144.403 13.1071 144.762 13.485 145.478 13.485C146.204 13.485 146.568 13.1071 146.568 12.3514C146.568 11.5956 146.204 11.2177 145.478 11.2177C144.762 11.2177 144.403 11.5956 144.403 12.3514ZM153.899 17.6808C154.399 16.8858 155.002 16.4879 155.709 16.4879C156.073 16.4879 156.465 16.5913 156.887 16.7974L156.946 16.8265C158.104 17.4255 158.683 18.2747 158.683 19.3742C158.683 19.4717 158.678 19.5752 158.669 19.6827C158.59 20.7138 158.212 21.9058 157.535 23.2605C157.397 23.5449 157.241 23.8343 157.064 24.1288C156.504 25.1107 155.862 25.6011 155.135 25.6011C154.841 25.6011 154.531 25.5227 154.207 25.3649C153.923 25.2282 153.639 25.0312 153.354 24.777C152.893 24.3348 152.662 23.9127 152.662 23.5107C152.662 23.3338 152.706 23.157 152.794 22.9801C153.079 22.4314 153.79 21.9058 154.929 21.4053C155.341 21.1791 155.591 20.9731 155.68 20.7872C155.7 20.738 155.709 20.6937 155.709 20.6545C155.709 20.5369 155.626 20.4334 155.459 20.345C155.322 20.2767 155.12 20.2134 154.856 20.1541C154.65 20.0948 154.468 20.0264 154.311 19.948C153.761 19.6727 153.486 19.2998 153.486 18.8295C153.486 18.5742 153.565 18.2938 153.722 17.9903C153.771 17.8818 153.83 17.7793 153.899 17.6808ZM161.259 12.5131C161.259 11.2086 161.544 10.1232 162.113 9.25996C162.693 8.38662 163.811 7.9495 165.469 7.9495H166.191C167.879 7.9696 169.008 8.39668 169.577 9.23082C170.156 10.065 170.445 11.0709 170.445 12.2488C170.445 12.7392 170.406 13.2598 170.327 13.8085C170.072 15.6246 168.724 16.5914 166.279 16.709C166.004 16.7291 165.75 16.7391 165.514 16.7391C164.327 16.7391 163.321 16.3612 162.496 15.6055C161.672 14.8397 161.259 13.8085 161.259 12.5131ZM164.778 12.3514C164.778 13.1071 165.136 13.485 165.852 13.485C166.579 13.485 166.942 13.1071 166.942 12.3514C166.942 11.5956 166.579 11.2177 165.852 11.2177C165.136 11.2177 164.778 11.5956 164.778 12.3514ZM173.037 12.5131C173.037 11.2086 173.321 10.1232 173.89 9.25996C174.469 8.38662 175.589 7.9495 177.247 7.9495H177.968C179.656 7.9696 180.785 8.39668 181.354 9.23082C181.933 10.065 182.223 11.0709 182.223 12.2488C182.223 12.7392 182.183 13.2598 182.105 13.8085C181.85 15.6246 180.5 16.5914 178.057 16.709C177.782 16.7291 177.526 16.7391 177.291 16.7391C176.103 16.7391 175.097 16.3612 174.273 15.6055C173.449 14.8397 173.037 13.8085 173.037 12.5131ZM176.555 12.3514C176.555 13.1071 176.913 13.485 177.63 13.485C178.356 13.485 178.719 13.1071 178.719 12.3514C178.719 11.5956 178.356 11.2177 177.63 11.2177C176.913 11.2177 176.555 11.5956 176.555 12.3514ZM184.813 12.5131C184.813 11.2086 185.099 10.1232 185.668 9.25996C186.247 8.38662 187.365 7.9495 189.024 7.9495H189.746C191.433 7.9696 192.562 8.39668 193.132 9.23082C193.711 10.065 194 11.0709 194 12.2488C194 12.7392 193.961 13.2598 193.882 13.8085C193.627 15.6246 192.277 16.5914 189.833 16.709C189.559 16.7291 189.304 16.7391 189.069 16.7391C187.881 16.7391 186.875 16.3612 186.051 15.6055C185.225 14.8397 184.813 13.8085 184.813 12.5131ZM188.332 12.3514C188.332 13.1071 188.691 13.485 189.407 13.485C190.133 13.485 190.497 13.1071 190.497 12.3514C190.497 11.5956 190.133 11.2177 189.407 11.2177C188.691 11.2177 188.332 11.5956 188.332 12.3514Z" fill="#FFE5B4"/>
</svg>
