<svg width="197" height="29" viewBox="0 0 197 29" fill="none" xmlns="http://www.w3.org/2000/svg">
<path d="M4.05943 18.5623C4.04939 18.6697 4.04442 18.8314 4.04442 19.0473C4.04442 19.3606 4.05445 19.7923 4.07353 20.3415C4.08357 22.3416 5.57462 23.3417 8.54467 23.3417C11.3892 23.3417 12.8109 22.0816 12.8109 19.5624V11.5459C12.8109 9.39914 13.5218 8.32478 14.9436 8.32478C16.4236 8.33482 17.1636 9.20236 17.1636 10.9284V14.1936C17.1546 15.4878 17.1496 16.3945 17.1496 16.9146C17.1496 17.4438 17.1445 18.0221 17.1345 18.6497C17.1245 19.2682 17.1154 19.5764 17.1054 19.5764C16.9186 22.4591 16.1244 24.4451 14.7227 25.5336C13.2809 26.7103 11.2707 27.2987 8.69224 27.2987C5.9953 27.2987 3.87273 26.7786 2.32345 25.7394C0.774166 24.7102 0 22.9149 0 20.3566V18.6205C0.0682769 16.287 0.465864 14.7278 1.1908 13.9436C2.06334 12.7276 3.08348 11.9776 4.25021 11.6934C4.67192 11.6051 5.05954 11.5609 5.41197 11.5609C6.22627 11.5609 6.87789 11.7908 7.36888 12.2517C7.89802 12.7327 8.16311 13.2568 8.16311 13.8261C8.16311 14.0319 8.12397 14.2428 8.04465 14.4587C7.79062 15.272 7.18211 15.6786 6.22122 15.6786C4.94705 15.6786 4.22611 16.6395 4.05943 18.5623ZM9.11896 10.6934C7.78555 10.6934 7.1189 10.0659 7.1189 8.81076C7.1189 7.54563 7.78555 6.91305 9.11896 6.91305C10.4423 6.91305 11.1041 7.54563 11.1041 8.81076C11.1041 10.0659 10.4423 10.6934 9.11896 10.6934ZM24.0767 3.1327L24.0626 12.9435C24.1108 15.0219 25.0325 16.0863 26.8278 16.1355H27.5919V20.0915H26.2394C26.0727 20.1015 25.9061 20.1066 25.7394 20.1066C23.9833 20.1066 22.6358 19.6748 21.694 18.8123C20.3998 17.6446 19.7531 15.772 19.7531 13.1935L19.7381 3.29437C19.7772 1.09846 20.4981 0 21.8998 0H21.9299C23.3517 0.0200814 24.0666 1.06431 24.0767 3.1327ZM35.8876 15.5913C36.5151 15.3844 36.8284 14.8262 36.8284 13.9145V13.8843C36.8194 12.6885 36.2892 12.0901 35.2399 12.0901C34.1816 12.0901 33.6515 12.6885 33.6515 13.8843L33.6374 16.1355C33.4115 18.7732 32.2649 20.0915 30.1955 20.0915H27.0186V16.1355H28.3419C29.2245 16.1355 29.6663 15.5953 29.6663 14.5169C29.6663 13.2819 29.7547 12.2668 29.9304 11.4726C30.3521 9.50156 32.0781 8.42317 35.1084 8.23641H35.1526C38.6136 8.23641 40.5063 9.59994 40.8296 12.326C40.8979 12.9234 40.932 13.4928 40.932 14.0319C40.932 15.9146 40.5103 17.3705 39.6679 18.3996C38.7753 19.3214 37.6969 19.7823 36.4318 19.7823C36.1476 19.7823 35.8534 19.7582 35.5492 19.709C34.4899 19.4248 33.9607 18.7089 33.9607 17.5612C33.9607 17.5421 33.9658 17.518 33.9758 17.4879C33.9949 16.3021 34.6325 15.6696 35.8876 15.5913ZM54.1546 19.2089C54.1546 19.229 54.1496 19.2531 54.1406 19.2822C53.6888 21.3616 52.9437 22.9843 51.9045 24.151C50.8653 25.3278 49.546 26.1802 47.9485 26.7103C47.5268 26.7987 47.1392 26.8429 46.7858 26.8429C45.9725 26.8429 45.3198 26.6119 44.8298 26.151C44.3007 25.6711 44.0356 25.146 44.0356 24.5777C44.0356 24.3719 44.0748 24.161 44.1531 23.9451C44.4182 23.3276 45.0266 22.92 45.9775 22.7242C47.6443 22.4501 48.7276 22.0133 49.2277 21.4149C50.3061 20.3465 50.8944 18.9589 50.9928 17.253C51.0029 16.9778 51.0079 16.7088 51.0079 16.4437C51.0079 15.1304 50.8111 14.066 50.4195 13.2517C50.1936 12.6935 49.7177 12.4144 48.9927 12.4144C47.9435 12.4144 47.4133 13.0118 47.4042 14.2086V14.2377C47.4042 15.1494 47.7175 15.7087 48.3451 15.9146C49.6002 15.9929 50.2377 16.6254 50.2568 17.8113C50.2669 17.8414 50.2719 17.8654 50.2719 17.8855C50.2719 19.0322 49.7428 19.7481 48.6835 20.0322C48.3792 20.0814 48.085 20.1066 47.8009 20.1066C46.5357 20.1066 45.4574 19.6457 44.5658 18.724C43.7223 17.6938 43.3006 16.2379 43.3006 14.3552C43.3006 13.816 43.3348 13.2478 43.403 12.6493C43.7273 9.92327 45.619 8.56072 49.0811 8.56072H49.1253C51.6937 8.71736 53.3263 9.51662 54.0221 10.9575C54.3956 11.8993 54.5814 12.9486 54.5814 14.1052C54.5814 14.3111 54.5763 14.5219 54.5663 14.7378C54.7038 15.6696 55.2732 16.1355 56.2732 16.1355H56.4931V20.0915H56.4349C55.7481 20.0624 54.988 19.7682 54.1546 19.2089ZM55.0814 5.10371C55.0814 3.83858 55.7481 3.20704 57.0815 3.20704C58.4059 3.20704 59.0676 3.83858 59.0676 5.10371C59.0676 6.3588 58.4059 6.98634 57.0815 6.98634C55.7481 6.98634 55.0814 6.3588 55.0814 5.10371ZM59.435 5.11878C59.435 3.85365 60.1017 3.22107 61.4351 3.22107C62.7595 3.22107 63.4212 3.85365 63.4212 5.11878C63.4212 6.37387 62.7595 7.00142 61.4351 7.00142C60.1017 7.00142 59.435 6.37387 59.435 5.11878ZM55.8756 16.1355H56.4489C59.5184 16.1355 61.0526 14.9045 61.0526 12.4435V10.7958C61.0526 9.14912 61.7545 8.32478 63.1562 8.32478C64.4504 8.32478 65.098 9.15315 65.098 10.8109V12.576C65.098 15.292 64.3279 17.2088 62.7887 18.3263C61.151 19.5031 59.1017 20.0915 56.6407 20.0915H55.8756V16.1355ZM75.0253 18.7089V18.4147C75.0454 17.6105 75.0554 15.6153 75.0554 12.4284C75.0554 10.9283 75.697 10.1733 76.9822 10.1632H77.2021C78.3397 10.1632 78.9673 10.9725 79.0847 12.5901C79.0948 13.0218 79.0998 13.4486 79.0998 13.8703C79.0998 14.3402 79.0847 14.8011 79.0556 15.2529C79.0657 15.3995 79.0707 15.5521 79.0707 15.7087C79.0707 16.8263 78.9382 18.243 78.6731 19.9589C78.4181 21.6749 77.659 23.1409 76.3938 24.3568C75.1287 25.5727 73.8585 26.3569 72.5844 26.7103C72.1627 26.7987 71.7751 26.8429 71.4227 26.8429C70.6084 26.8429 69.9568 26.6119 69.4658 26.151C68.9366 25.6711 68.6715 25.146 68.6715 24.5777C68.6715 24.3719 68.7107 24.161 68.789 23.9451C69.0541 23.3276 69.6626 22.92 70.6134 22.7242C72.2802 22.4501 73.3636 22.0133 73.8636 21.4149C74.5604 20.7974 74.947 19.8957 75.0253 18.7089ZM81.8651 3.29437C81.9042 1.09846 82.6251 0 84.0268 0H84.0569C85.4787 0.0200814 86.1936 1.06431 86.2036 3.1327V16.9588C86.1936 19.0272 85.4787 20.0714 84.0569 20.0915H84.0268C82.6251 20.0915 81.9042 18.993 81.8651 16.7971V3.29437ZM94.8085 16.1355H96.7645V20.0915H95.9552C95.5927 20.0915 95.3036 20.1648 95.0877 20.3124C94.7935 20.5282 94.6218 21.0032 94.5726 21.7392C94.5334 22.4149 94.4551 23.0776 94.3376 23.7242C94.0625 24.9301 93.3767 25.9894 92.2783 26.9011C90.8274 27.9212 89.4348 28.4314 88.1013 28.4314H87.5722C86.1986 28.4314 85.3753 28.2546 85.1011 27.9012C84.9043 27.9012 84.6694 27.4704 84.3943 26.6069V26.137C84.3943 25.3127 84.9435 24.7052 86.042 24.3126C86.2086 24.3126 86.3653 24.2935 86.5129 24.2544C86.8854 24.2935 87.2388 24.3126 87.5722 24.3126H87.9246C88.7389 24.3126 89.4639 23.92 90.1015 23.1358C90.4157 22.6258 90.5724 22.0283 90.5724 21.3416C90.5724 20.6558 90.6216 20.0674 90.719 19.5764L90.8665 18.8414C91.6608 17.0371 92.9741 16.1355 94.8085 16.1355ZM91.1748 9.07483C92.4992 9.07483 93.1609 9.70238 93.1609 10.9575C93.1609 12.2226 92.4992 12.8552 91.1748 12.8552C89.8414 12.8552 89.1747 12.2226 89.1747 10.9575C89.1747 9.70238 89.8414 9.07483 91.1748 9.07483ZM102.824 16.1355C103.697 16.0471 104.133 15.3312 104.133 13.9878C104.133 13.8793 104.128 13.7227 104.118 13.5169C104.011 12.1634 103.467 11.4876 102.486 11.4876C102.358 11.4876 102.236 11.4967 102.118 11.5167C101.343 11.6051 100.907 12.2567 100.809 13.4727C100.799 13.6785 100.795 13.8361 100.795 13.9436C100.795 15.3844 101.334 16.1154 102.412 16.1355H102.824ZM97.9412 16.1355C97.637 15.527 97.4854 14.8412 97.4854 14.0761C97.4854 12.3892 97.882 11.0167 98.6762 9.95738C99.0588 9.44731 99.5879 9.06076 100.265 8.79568C100.166 8.74648 100.074 8.69225 99.9855 8.63402C99.4464 8.34987 99.103 8.06473 98.9554 7.78058C98.7204 7.42815 98.6029 7.0747 98.6029 6.72227C98.6029 6.31964 98.7495 5.88789 99.0437 5.42802C99.4262 4.84867 99.9755 4.55951 100.691 4.55951C101.005 4.55951 101.348 4.60868 101.721 4.70708C102.8 4.89283 105.158 5.93209 108.795 7.82477C111.62 9.21741 113.227 11.1492 113.62 13.6202V13.6785C113.591 16.1886 112.88 17.9046 111.487 18.8264C110.222 19.6698 108.511 20.0915 106.354 20.0915H96.147V16.1355H97.9412ZM107.457 16.1204C108.918 16.032 109.703 15.4828 109.81 14.4727V14.311C109.81 13.4285 109.031 12.6342 107.472 11.9284C107.805 12.5559 107.972 13.2277 107.972 13.9436C107.972 14.042 107.967 14.1393 107.957 14.2377C107.908 15.0711 107.741 15.6987 107.457 16.1204ZM126.327 15.0029C126.377 16.0812 126.401 17.0029 126.401 17.768C126.382 19.3173 125.931 20.0915 125.048 20.0915C124.851 20.0915 124.637 20.0523 124.401 19.974C123.224 19.6015 122.548 17.6305 122.371 14.0611C122.351 13.6203 122.337 13.1544 122.327 12.6644C122.268 8.21235 121.832 5.34868 121.018 4.07451C120.724 3.61364 120.577 3.23612 120.577 2.94192C120.577 2.43186 121.028 2.17686 121.93 2.17686C123.351 2.17686 124.455 2.79034 125.239 4.01531C126.023 5.23124 126.416 6.68313 126.416 8.36897C126.377 10.7225 126.337 12.6835 126.298 14.2528C126.308 14.5068 126.317 14.7579 126.327 15.0029ZM134.74 15.0029C134.79 16.0812 134.814 17.0029 134.814 17.768C134.795 19.3173 134.344 20.0915 133.461 20.0915C133.264 20.0915 133.05 20.0523 132.814 19.974C131.637 19.6015 130.96 17.6305 130.784 14.0611C130.764 13.6203 130.749 13.1544 130.74 12.6644C130.681 8.21235 130.245 5.34868 129.431 4.07451C129.137 3.61364 128.99 3.23612 128.99 2.94192C128.99 2.43186 129.441 2.17686 130.343 2.17686C131.764 2.17686 132.868 2.79034 133.652 4.01531C134.436 5.23124 134.829 6.68313 134.829 8.36897C134.927 10.0658 135.368 10.9133 136.152 10.9133C136.907 10.9133 137.285 10.4283 137.285 9.45736C137.285 9.16317 137.251 8.82481 137.182 8.44226C137.182 6.80562 136.775 5.34868 135.961 4.07451C135.667 3.61364 135.52 3.23612 135.52 2.94192C135.52 2.43186 135.971 2.17686 136.873 2.17686C138.295 2.17686 139.398 2.79034 140.183 4.01531C140.967 5.23124 141.359 7.35381 141.359 10.3841C140.909 13.4827 139.575 15.032 137.359 15.032C137.123 15.032 136.873 15.0119 136.608 14.9727C135.824 14.9727 135.191 14.7328 134.711 14.2528C134.721 14.5068 134.73 14.7579 134.74 15.0029ZM143.933 12.5017C143.933 11.1984 144.218 10.114 144.786 9.25151C145.365 8.37897 146.482 7.94225 148.14 7.94225H148.861C150.547 7.96233 151.674 8.38902 152.243 9.2224C152.822 10.0558 153.111 11.0608 153.111 12.2376C153.111 12.7276 153.072 13.2477 152.994 13.7959C152.738 15.6103 151.39 16.5763 148.948 16.6937C148.674 16.7138 148.419 16.7238 148.184 16.7238C146.997 16.7238 145.992 16.3463 145.169 15.5913C144.345 14.8261 143.933 13.7959 143.933 12.5017ZM147.448 12.3401C147.448 13.0952 147.806 13.4727 148.522 13.4727C149.247 13.4727 149.611 13.0952 149.611 12.3401C149.611 11.585 149.247 11.2074 148.522 11.2074C147.806 11.2074 147.448 11.585 147.448 12.3401ZM156.936 17.6647C157.436 16.8704 158.038 16.4728 158.744 16.4728C159.107 16.4728 159.499 16.5762 159.921 16.7821L159.98 16.8112C161.137 17.4096 161.715 18.2581 161.715 19.3565C161.715 19.4539 161.71 19.5573 161.701 19.6648C161.623 20.695 161.245 21.8858 160.568 23.2393C160.431 23.5234 160.274 23.8126 160.097 24.1068C159.538 25.0878 158.896 25.5777 158.171 25.5777C157.876 25.5777 157.567 25.4994 157.244 25.3418C156.96 25.2052 156.675 25.0084 156.391 24.7544C155.93 24.3126 155.699 23.8909 155.699 23.4893C155.699 23.3125 155.744 23.1359 155.832 22.9591C156.116 22.4109 156.827 21.8858 157.965 21.3857C158.376 21.1598 158.626 20.954 158.715 20.7683C158.735 20.7191 158.744 20.6749 158.744 20.6357C158.744 20.5182 158.661 20.4148 158.494 20.3265C158.357 20.2582 158.155 20.1949 157.891 20.1357C157.686 20.0764 157.504 20.0081 157.347 19.9298C156.798 19.6547 156.523 19.2822 156.523 18.8123C156.523 18.5573 156.602 18.2771 156.759 17.9739C156.808 17.8655 156.866 17.7631 156.936 17.6647ZM164.289 12.5017C164.289 11.1984 164.573 10.114 165.142 9.25151C165.721 8.37897 166.839 7.94225 168.495 7.94225H169.216C170.903 7.96233 172.031 8.38902 172.599 9.2224C173.177 10.0558 173.467 11.0608 173.467 12.2376C173.467 12.7276 173.427 13.2477 173.349 13.7959C173.094 15.6103 171.747 16.5763 169.305 16.6937C169.03 16.7138 168.776 16.7238 168.54 16.7238C167.354 16.7238 166.349 16.3463 165.524 15.5913C164.701 14.8261 164.289 13.7959 164.289 12.5017ZM167.805 12.3401C167.805 13.0952 168.162 13.4727 168.878 13.4727C169.604 13.4727 169.966 13.0952 169.966 12.3401C169.966 11.585 169.604 11.2074 168.878 11.2074C168.162 11.2074 167.805 11.585 167.805 12.3401ZM176.056 12.5017C176.056 11.1984 176.34 10.114 176.909 9.25151C177.487 8.37897 178.605 7.94225 180.262 7.94225H180.983C182.669 7.96233 183.797 8.38902 184.366 9.2224C184.944 10.0558 185.233 11.0608 185.233 12.2376C185.233 12.7276 185.194 13.2477 185.116 13.7959C184.861 15.6103 183.512 16.5763 181.071 16.6937C180.796 16.7138 180.541 16.7238 180.306 16.7238C179.119 16.7238 178.114 16.3463 177.291 15.5913C176.468 14.8261 176.056 13.7959 176.056 12.5017ZM179.571 12.3401C179.571 13.0952 179.929 13.4727 180.645 13.4727C181.371 13.4727 181.733 13.0952 181.733 12.3401C181.733 11.585 181.371 11.2074 180.645 11.2074C179.929 11.2074 179.571 11.585 179.571 12.3401ZM187.822 12.5017C187.822 11.1984 188.107 10.114 188.675 9.25151C189.254 8.37897 190.371 7.94225 192.029 7.94225H192.75C194.436 7.96233 195.563 8.38902 196.132 9.2224C196.711 10.0558 197 11.0608 197 12.2376C197 12.7276 196.961 13.2477 196.883 13.7959C196.627 15.6103 195.279 16.5763 192.837 16.6937C192.563 16.7138 192.308 16.7238 192.073 16.7238C190.886 16.7238 189.881 16.3463 189.058 15.5913C188.233 14.8261 187.822 13.7959 187.822 12.5017ZM191.337 12.3401C191.337 13.0952 191.695 13.4727 192.411 13.4727C193.136 13.4727 193.5 13.0952 193.5 12.3401C193.5 11.585 193.136 11.2074 192.411 11.2074C191.695 11.2074 191.337 11.585 191.337 12.3401Z" fill="#FFE5B4"/>
</svg>
