<svg width="198" height="46" viewBox="0 0 198 46" fill="none" xmlns="http://www.w3.org/2000/svg">
<path d="M0.094385 33.6082C0.0321272 32.9966 0 32.4162 0 31.867C0 30.6901 0.13354 29.6227 0.400646 28.6657L2.40093 22.712C3.05966 20.6244 4.11905 19.5811 5.57809 19.5811C5.95465 19.5811 6.34728 19.6443 6.75497 19.7699C8.27727 20.2408 9.03743 21.1978 9.03743 22.6408C9.03743 23.19 8.92797 23.8096 8.70806 24.5005L6.96684 29.6076C6.69974 30.4702 6.56718 31.2705 6.56718 32.0076C6.56718 34.6435 8.25316 36.5112 11.6271 37.6097C13.054 37.8919 14.0984 38.0405 14.7571 38.0566H14.8977C15.5725 38.0566 16.6871 37.9702 18.2395 37.7975L19.4636 37.5154C16.0123 34.3302 14.2862 32.3841 14.2862 31.6782C14.1606 31.6782 14.0662 31.145 14.004 30.0785C14.0351 28.9479 14.6396 27.9367 15.8155 27.042C16.8829 26.2266 18.7577 25.8179 21.4408 25.8179H28.6426V32.1491H23.1358C25.4574 33.9847 26.6504 35.8364 26.7126 37.7031C26.7126 39.4132 26.1161 40.8411 24.9242 41.9869C23.7313 43.1477 21.6607 43.8536 18.7105 44.1047H15.5333C13.4778 44.1047 11.6974 43.94 10.1912 43.6106C8.59056 43.2812 6.9357 42.5904 5.22562 41.54C3.5306 40.5037 2.29951 39.3901 1.53032 38.1972C0.761139 37.0053 0.283167 35.4749 0.094385 33.6082ZM34.1735 34.5029C36.2913 34.5029 37.3507 35.507 37.3507 37.5154C37.3507 39.5387 36.2913 40.5509 34.1735 40.5509C32.0397 40.5509 30.9723 39.5387 30.9723 37.5154C30.9723 35.507 32.0397 34.5029 34.1735 34.5029ZM27.8423 25.8179H28.7601C33.6714 25.8179 36.1266 23.8488 36.1266 19.9105V17.2755C36.1266 14.6386 37.2482 13.3212 39.4925 13.3212C41.5631 13.3212 42.5984 14.6466 42.5984 17.2986V20.1223C42.5984 24.4693 41.3673 27.536 38.9041 29.3254C36.2832 31.2072 33.0047 32.1491 29.0664 32.1491H27.8423V25.8179ZM53.3068 5.01375L53.2837 20.7108C53.362 24.0376 54.8371 25.7396 57.708 25.8179H58.9321V32.1491H56.7671C56.5 32.1652 56.2329 32.1722 55.9668 32.1722C53.1581 32.1722 51.0012 31.4824 49.495 30.1017C47.4234 28.2349 46.3881 25.2375 46.3881 21.1114L46.364 5.27183C46.4273 1.75728 47.58 0 49.8243 0H49.8705C52.146 0.0321331 53.2917 1.70303 53.3068 5.01375ZM62.7448 34.5029C64.8626 34.5029 65.922 35.507 65.922 37.5154C65.922 39.5387 64.8626 40.5509 62.7448 40.5509C60.611 40.5509 59.5436 39.5387 59.5436 37.5154C59.5436 35.507 60.611 34.5029 62.7448 34.5029ZM73.2413 19.0399C73.3829 23.5435 74.4724 25.8029 76.5129 25.8179H76.8181V32.1491H76.5129C73.8609 32.1331 71.711 31.0506 70.0642 28.9017C69.8914 29.0423 69.7187 29.1758 69.546 29.3013C66.9262 31.1841 63.2389 32.126 58.4852 32.126L58.0142 32.1019V25.7948H58.4852C64.0081 25.7948 66.7695 23.8257 66.7695 19.8874L66.7454 17.2514C66.7615 14.6155 67.8912 13.2981 70.1345 13.2981C72.206 13.2981 73.2413 14.6235 73.2413 17.2755V19.0399ZM75.8772 25.8179H88.139C90.5711 25.6452 91.7871 24.7123 91.7871 23.0173C91.7871 20.9146 91.0651 19.2989 89.6212 18.1692C89.1351 17.7927 88.617 17.6049 88.0687 17.6049C86.9541 17.6049 85.6909 18.358 84.279 19.8642C82.6161 21.5111 81.133 22.3355 79.8306 22.3355H79.7372C78.8586 22.3355 78.0663 21.9429 77.3604 21.1586C76.9205 20.6565 76.7006 20.052 76.7006 19.3461C76.7006 19.1734 76.7087 19.0007 76.7247 18.828C76.8181 17.7304 77.274 16.6941 78.0894 15.7221C80.0194 13.3212 82.1613 11.6342 84.514 10.6621C85.3937 10.3006 86.3426 10.1199 87.3618 10.1199C89.0257 10.1199 90.8693 10.615 92.8927 11.603C96.1412 13.1876 97.9215 16.1298 98.2358 20.4286C98.3141 23.0023 98.7058 24.7515 99.4117 25.6773C99.8204 26.2105 100.329 26.4776 100.942 26.4776C101.051 26.4776 101.169 26.4616 101.295 26.4304C101.514 26.3983 101.711 26.3833 101.883 26.3833C102.574 26.3833 102.919 26.6494 102.919 27.1836C102.919 27.6696 102.621 28.3835 102.025 29.3254C101.083 30.7845 98.9648 31.6782 95.6702 32.0076C94.7132 32.1019 93.6538 32.1491 92.493 32.1491L89.1271 32.1722H75.8772V25.8179ZM129.913 18.5699C129.285 17.6752 128.415 17.2203 127.301 17.2042H127.16C126.108 17.2042 125.285 17.636 124.688 18.4986L127.324 22.0292L129.913 18.5699ZM133.044 25.7245C133.373 25.7868 133.718 25.8179 134.079 25.8179H140.551V32.1491H132.714C130.581 32.1491 128.839 31.0195 127.489 28.7601C126.83 30.5806 125.56 31.6631 123.676 32.0076C123.552 32.0548 123.418 32.1019 123.277 32.1491C121.519 32.604 120.641 33.797 120.641 35.726C120.641 35.9931 120.672 36.2682 120.735 36.5504L120.782 36.691C121.159 38.0094 122.147 38.6681 123.747 38.6681C123.999 38.6681 124.265 38.637 124.548 38.5738C124.908 38.4954 125.238 38.4563 125.536 38.4563C126.54 38.4563 127.309 38.8961 127.842 39.7747C128.046 40.088 128.188 40.4023 128.266 40.7156C128.328 40.9355 128.361 41.1635 128.361 41.3984C128.361 42.0732 128.117 42.7631 127.631 43.469C127.034 44.3637 126.108 44.9682 124.853 45.2815C124.305 45.4231 123.684 45.5014 122.994 45.5165C121.08 45.5165 119.213 44.7403 117.393 43.1869C116.106 42.0572 115.22 40.818 114.733 39.4684C114.294 38.2444 114.066 37.0364 114.051 35.8444V34.8554C114.051 32.8942 114.655 31.153 115.863 29.6307C116.585 28.8937 117.276 28.2811 117.934 27.7951C118.295 27.4969 118.68 27.2458 119.087 27.042C119.495 26.8221 119.943 26.6343 120.429 26.4776C120.915 26.3049 121.371 26.093 121.794 25.842C121.966 25.7165 122.029 25.5829 121.982 25.4414L120.453 23.3939L118.993 21.2992C116.671 18.3972 117.032 15.7693 120.076 13.4155C120.437 13.1484 120.844 12.8743 121.299 12.5911C122.963 11.6191 124.775 11.1241 126.736 11.109H127.89C129.913 11.1713 131.773 11.7125 133.467 12.7327C133.844 12.9677 134.213 13.2187 134.573 13.4858L136.009 14.6386C137.672 16.4431 137.868 18.2948 136.598 20.1936L134.22 23.3236L132.714 25.3239C132.62 25.5127 132.73 25.6452 133.044 25.7245ZM161.591 24.147C161.56 24.2886 161.529 24.4221 161.498 24.5476C161.874 25.3942 162.792 25.8179 164.251 25.8179H164.91V32.1491H163.474C161.372 32.1019 159.842 31.4663 158.885 30.2432C158.006 30.917 157.025 31.3488 155.943 31.5376C155.504 31.6159 155.056 31.6551 154.601 31.6551C154.146 31.6551 153.676 31.6159 153.189 31.5376C151.495 31.0827 150.648 29.937 150.648 28.1014C150.648 28.0702 150.656 28.0301 150.671 27.9839C150.703 26.085 151.722 25.0728 153.731 24.9473C154.735 24.6179 155.237 23.7232 155.237 22.2642V22.217C155.222 20.3031 154.374 19.3461 152.695 19.3461C151 19.3461 150.154 20.3031 150.154 22.217L150.13 25.8179C149.769 30.0384 147.934 32.1491 144.623 32.1491H139.539V25.8179H141.658C143.07 25.8179 143.775 24.9553 143.775 23.2292C143.775 21.252 143.917 19.6283 144.199 18.358C144.874 15.2039 147.635 13.4778 152.483 13.1796H152.554C158.093 13.1796 161.121 15.3606 161.638 19.7227C161.749 20.4919 161.803 21.2209 161.803 21.9117C161.803 22.696 161.733 23.4411 161.591 24.147ZM177.101 9.27339C177.101 7.24901 178.168 6.23683 180.302 6.23683C182.419 6.23683 183.479 7.24901 183.479 9.27339C183.479 11.2817 182.419 12.2859 180.302 12.2859C178.168 12.2859 177.101 11.2817 177.101 9.27339ZM180.655 3.46031C180.655 1.43593 181.722 0.423752 183.855 0.423752C185.974 0.423752 187.033 1.43593 187.033 3.46031C187.033 5.46863 185.974 6.47279 183.855 6.47279C181.722 6.47279 180.655 5.46863 180.655 3.46031ZM184.067 9.2965C184.067 7.27312 185.135 6.26091 187.269 6.26091C189.386 6.26091 190.446 7.27312 190.446 9.2965C190.446 11.3048 189.386 12.309 187.269 12.309C185.135 12.309 184.067 11.3048 184.067 9.2965ZM169.217 18.4755C169.217 15.0393 170.355 13.3212 172.629 13.3212C174.999 13.3372 176.184 14.725 176.184 17.4864V23.182C176.293 25.2536 177.156 26.2889 178.772 26.2889C180.011 26.2889 180.631 25.3791 180.631 23.5586V17.4864C180.631 14.8194 181.839 13.4306 184.256 13.3212C186.217 13.3212 187.244 14.7571 187.339 17.628V23.0414C187.448 25.2536 188.241 26.3592 189.716 26.3592H189.763C191.191 26.3592 191.905 25.3008 191.905 23.182V17.8168C191.905 14.8194 192.987 13.3212 195.152 13.3212C197.035 13.3212 197.984 14.8043 198 17.7696V22.2642C198 25.1984 197.498 27.5129 196.494 29.207C195.317 31.1681 193.607 32.2275 191.364 32.3841H190.257C187.339 32.2275 185.362 31.3729 184.326 29.8195C183.715 31.3729 182.168 32.3841 179.69 32.8551C179.376 32.8711 179.063 32.8791 178.748 32.8791C175.657 32.8791 173.336 32.0156 171.782 30.2894C170.229 31.5296 168.346 32.1491 166.134 32.1491H164.298V25.8179H166.77C168.401 25.8179 169.217 24.5949 169.217 22.1467V18.4755Z" fill="#FFE5B4"/>
</svg>
