<svg width="263" height="46" viewBox="0 0 263 46" fill="none" xmlns="http://www.w3.org/2000/svg">
<path d="M0.100227 33.1301C0.030051 32.5196 0 31.9401 0 31.3918C0 30.2168 0.130352 29.1512 0.401031 28.1958L2.39603 22.2518C3.05769 20.1676 4.11037 19.126 5.57405 19.126C5.94498 19.126 6.33588 19.1891 6.74691 19.3145C8.26071 19.7846 9.02264 20.74 9.02264 22.1807C9.02264 22.729 8.91241 23.3476 8.69186 24.0373L6.95752 29.1361C6.68685 29.9973 6.55649 30.7963 6.55649 31.5321C6.55649 34.1637 8.24064 36.0284 11.6091 37.1252C13.0327 37.4069 14.0753 37.5552 14.7369 37.5713H14.8773C15.549 37.5713 16.6619 37.4851 18.2158 37.3126L19.4388 37.0309C15.9901 33.8509 14.2658 31.9081 14.2658 31.2033C14.1355 31.2033 14.0452 30.671 13.985 29.6063C14.0151 28.4775 14.6167 27.4679 15.7896 26.5747C16.8523 25.7606 18.727 25.3526 21.4037 25.3526H28.6018V31.6735H23.098C25.4138 33.5061 26.6067 35.3547 26.6669 37.2184C26.6669 38.9257 26.0755 40.3513 24.8825 41.4951C23.6895 42.654 21.6243 43.3588 18.6769 43.6094H15.5089C13.4537 43.6094 11.6793 43.445 10.1756 43.1162C8.58156 42.7874 6.92735 42.0976 5.22307 41.049C3.52882 40.0144 2.29579 38.9026 1.53388 37.7116C0.761942 36.5217 0.28068 34.9938 0.100227 33.1301ZM28.0604 25.3526H30.1457C35.048 25.3526 37.5042 23.3867 37.5042 19.4548V16.8242C37.5042 14.1916 38.6269 12.8763 40.8626 12.8763C42.9277 12.8763 43.9603 14.1996 43.9603 16.8473V19.6664C43.9603 24.0063 42.7373 27.0679 40.2711 28.8544C37.6545 30.7331 34.3863 31.6735 30.4564 31.6735H28.0604V25.3526ZM27.9602 37.054C27.9602 35.049 29.0328 34.0464 31.1582 34.0464C33.2735 34.0464 34.3261 35.049 34.3261 37.054C34.3261 39.0751 33.2735 40.0856 31.1582 40.0856C29.0328 40.0856 27.9602 39.0751 27.9602 37.054ZM34.9176 37.0309C34.9176 35.0259 35.9803 34.0234 38.1157 34.0234C40.231 34.0234 41.2837 35.0259 41.2837 37.0309C41.2837 39.051 40.231 40.0615 38.1157 40.0615C35.9803 40.0615 34.9176 39.051 34.9176 37.0309ZM31.5091 42.8576C31.5091 40.8525 32.5717 39.85 34.7071 39.85C36.8224 39.85 37.8751 40.8525 37.8751 42.8576C37.8751 44.8786 36.8224 45.8892 34.7071 45.8892C32.5717 45.8892 31.5091 44.8786 31.5091 42.8576ZM65.4142 30.2639C65.4142 30.295 65.4041 30.3341 65.3941 30.3812C64.6723 33.7016 63.4794 36.2941 61.8252 38.1588C60.161 40.0385 58.0557 41.4009 55.4993 42.247C54.8276 42.3884 54.206 42.4585 53.6446 42.4585C52.3414 42.4585 51.2988 42.0906 50.5168 41.3538C49.6747 40.5869 49.2536 39.7488 49.2536 38.8395C49.2536 38.5107 49.3138 38.1738 49.4341 37.8299C49.8652 36.8424 50.8376 36.1928 52.3514 35.879C55.018 35.4409 56.7424 34.7432 57.5444 33.7878C59.2688 32.0805 60.2111 29.8639 60.3614 27.1391C60.3815 26.7 60.3916 26.2689 60.3916 25.8468C60.3916 23.7476 60.0708 22.0473 59.4492 20.7481C59.0883 19.8548 58.3264 19.4087 57.1735 19.4087C55.4893 19.4087 54.6471 20.3641 54.6271 22.2749V22.322C54.6271 23.7787 55.1283 24.6719 56.1309 25.0007C58.1359 25.126 59.1585 26.1366 59.1886 28.0313C59.2086 28.0785 59.2087 28.1176 59.2087 28.1486C59.2087 29.9812 58.3665 31.1251 56.6723 31.5793C56.191 31.6574 55.7198 31.6966 55.2687 31.6966C53.2436 31.6966 51.5193 30.9607 50.0957 29.488C48.7523 27.8439 48.0806 25.517 48.0806 22.5095C48.0806 21.6483 48.1308 20.74 48.2411 19.7846C48.7523 15.4297 51.78 13.2523 57.3139 13.2523H57.384C61.4843 13.5029 64.0909 14.7791 65.2037 17.0819C65.7952 18.5856 66.0959 20.2618 66.0959 22.1105C66.0959 22.4393 66.0859 22.7761 66.0759 23.121C66.2964 24.6087 67.1987 25.3526 68.8027 25.3526H69.1535V31.6735H69.0633C67.9606 31.6264 66.7475 31.1562 65.4142 30.2639ZM66.8979 7.7304C66.8979 5.71033 67.9606 4.69978 70.096 4.69978C72.2113 4.69978 73.2638 5.71033 73.2638 7.7304C73.2638 9.73543 72.2113 10.7379 70.096 10.7379C67.9606 10.7379 66.8979 9.73543 66.8979 7.7304ZM73.8554 7.75445C73.8554 5.73337 74.918 4.72285 77.0433 4.72285C79.1586 4.72285 80.2213 5.73337 80.2213 7.75445C80.2213 9.75948 79.1586 10.762 77.0433 10.762C74.918 10.762 73.8554 9.75948 73.8554 7.75445ZM68.161 25.3526H69.0834C73.9857 25.3526 76.4318 23.3867 76.4318 19.4548V16.8242C76.4318 14.1916 77.5546 12.8763 79.8002 12.8763C81.8654 12.8763 82.8981 14.1996 82.8981 16.8473V19.6664C82.8981 24.0063 81.665 27.0679 79.2088 28.8544C76.5922 30.7331 73.314 31.6735 69.3841 31.6735H68.161V25.3526ZM94.0561 19.8077C94.1664 17.2232 94.8381 15.1871 96.0511 13.6984C97.4847 12.2267 99.2089 11.4898 101.224 11.4898C101.675 11.4898 102.146 11.5289 102.638 11.6071C104.322 12.0623 105.174 13.2051 105.174 15.0377C105.174 15.0698 105.164 15.1089 105.154 15.155C105.114 17.0508 104.101 18.0613 102.096 18.1866C101.094 18.5155 100.592 19.4087 100.592 20.8654C100.592 21.1631 100.613 21.4057 100.663 21.5932C101.274 23.1601 102.608 24.2408 104.683 24.8363C105.866 25.1802 107.77 25.3526 110.387 25.3526H117.926C121.084 25.3526 122.658 23.3867 122.658 19.4548L122.628 16.8242C122.648 14.1916 123.771 12.8763 126.016 12.8763C128.081 12.8763 129.114 14.1996 129.114 16.8473V19.6664C129.114 24.0063 127.881 27.0679 125.425 28.8544C122.658 30.7331 119.971 31.6735 117.365 31.6735H108.743C106.868 31.6735 105.114 31.5401 103.5 31.2745C101.074 30.8825 99.1188 30.1857 97.635 29.1832C96.9734 28.7441 96.3218 28.0785 95.6802 27.1852C95.0386 26.293 94.5472 25.0318 94.1964 23.4027C94.0861 22.4473 94.036 21.5391 94.036 20.6769C94.036 20.4112 94.0461 20.1215 94.0561 19.8077ZM105.685 37.054C105.685 35.049 106.758 34.0464 108.883 34.0464C110.999 34.0464 112.061 35.049 112.061 37.054C112.061 39.0751 110.999 40.0856 108.883 40.0856C106.758 40.0856 105.685 39.0751 105.685 37.054ZM112.643 37.0309C112.643 35.0259 113.705 34.0234 115.841 34.0234C117.956 34.0234 119.009 35.0259 119.009 37.0309C119.009 39.051 117.956 40.0615 115.841 40.0615C113.705 40.0615 112.643 39.051 112.643 37.0309ZM109.234 42.8576C109.234 40.8525 110.307 39.85 112.432 39.85C114.547 39.85 115.6 40.8525 115.6 42.8576C115.6 44.8786 114.547 45.8892 112.432 45.8892C110.307 45.8892 109.234 44.8786 109.234 42.8576ZM150.568 30.2639C150.568 30.295 150.558 30.3341 150.548 30.3812C149.826 33.7016 148.633 36.2941 146.969 38.1588C145.315 40.0385 143.209 41.4009 140.653 42.247C139.981 42.3884 139.36 42.4585 138.798 42.4585C137.495 42.4585 136.452 42.0906 135.67 41.3538C134.828 40.5869 134.397 39.7488 134.397 38.8395C134.397 38.5107 134.467 38.1738 134.588 37.8299C135.009 36.8424 135.981 36.1928 137.505 35.879C140.162 35.4409 141.896 34.7432 142.698 33.7878C144.422 32.0805 145.355 29.8639 145.515 27.1391C145.535 26.7 145.535 26.2689 145.535 25.8468C145.535 23.7476 145.224 22.0473 144.603 20.7481C144.242 19.8548 143.48 19.4087 142.317 19.4087C140.643 19.4087 139.801 20.3641 139.781 22.2749V22.322C139.781 23.7787 140.282 24.6719 141.285 25.0007C143.29 25.126 144.312 26.1366 144.342 28.0313C144.352 28.0785 144.362 28.1176 144.362 28.1486C144.362 29.9812 143.52 31.1251 141.826 31.5793C141.345 31.6574 140.874 31.6966 140.412 31.6966C138.397 31.6966 136.673 30.9607 135.249 29.488C133.896 27.8439 133.224 25.517 133.224 22.5095C133.224 21.6483 133.285 20.74 133.395 19.7846C133.906 15.4297 136.934 13.2523 142.457 13.2523H142.528C146.638 13.5029 149.245 14.7791 150.357 17.0819C150.949 18.5856 151.25 20.2618 151.25 22.1105C151.25 22.4393 151.24 22.7761 151.23 23.121C151.44 24.6087 152.352 25.3526 153.946 25.3526H154.307V31.6735H154.207C153.114 31.6264 151.901 31.1562 150.568 30.2639ZM152.052 7.7304C152.052 5.71033 153.114 4.69978 155.24 4.69978C157.355 4.69978 158.418 5.71033 158.418 7.7304C158.418 9.73543 157.355 10.7379 155.24 10.7379C153.114 10.7379 152.052 9.73543 152.052 7.7304ZM158.999 7.75445C158.999 5.73337 160.072 4.72285 162.197 4.72285C164.312 4.72285 165.375 5.73337 165.375 7.75445C165.375 9.75948 164.312 10.762 162.197 10.762C160.072 10.762 158.999 9.75948 158.999 7.75445ZM153.315 25.3526H154.237C159.139 25.3526 161.586 23.3867 161.586 19.4548V16.8242C161.586 14.1916 162.708 12.8763 164.944 12.8763C167.019 12.8763 168.052 14.1996 168.052 16.8473V19.6664C168.052 24.0063 166.819 27.0679 164.362 28.8544C161.746 30.7331 158.468 31.6735 154.538 31.6735H153.315V25.3526ZM195.019 18.1164C194.398 17.2232 193.526 16.7691 192.413 16.753H192.273C191.22 16.753 190.398 17.1841 189.806 18.0453L192.443 21.5701L195.019 18.1164ZM198.147 25.2594C198.478 25.3215 198.819 25.3526 199.18 25.3526H205.646V31.6735H197.817C195.691 31.6735 193.947 30.5457 192.603 28.29C191.942 30.1076 190.679 31.1883 188.794 31.5321C188.674 31.5793 188.533 31.6264 188.393 31.6735C186.638 32.1276 185.766 33.3186 185.766 35.2445C185.766 35.5111 185.796 35.7858 185.856 36.0675L185.907 36.2079C186.278 37.5242 187.27 38.1818 188.864 38.1818C189.115 38.1818 189.385 38.1507 189.666 38.0876C190.027 38.0094 190.358 37.9703 190.649 37.9703C191.651 37.9703 192.423 38.4094 192.954 39.2866C193.155 39.5994 193.295 39.9132 193.375 40.226C193.445 40.4455 193.476 40.6731 193.476 40.9077C193.476 41.5813 193.225 42.2701 192.744 42.9749C192.152 43.8681 191.22 44.4716 189.967 44.7844C189.425 44.9257 188.804 45.0039 188.112 45.019C186.207 45.019 184.343 44.244 182.518 42.6931C181.235 41.5653 180.353 40.3282 179.871 38.9808C179.43 37.7588 179.2 36.5527 179.19 35.3627V34.3753C179.19 32.4174 179.791 30.679 180.994 29.1592C181.716 28.4233 182.408 27.8118 183.059 27.3266C183.42 27.0288 183.811 26.7782 184.212 26.5747C184.623 26.3551 185.064 26.1677 185.556 26.0113C186.037 25.8388 186.498 25.6273 186.919 25.3767C187.089 25.2514 187.15 25.118 187.1 24.9767L185.576 22.9326L184.122 20.8413C181.806 17.944 182.167 15.3204 185.205 12.9705C185.566 12.7039 185.967 12.4302 186.428 12.1475C188.082 11.1771 189.897 10.6828 191.851 10.6678H193.004C195.019 10.7299 196.884 11.2703 198.568 12.2888C198.949 12.5234 199.31 12.7741 199.671 13.0407L201.105 14.1916C202.769 15.9931 202.969 17.8418 201.696 19.7375L199.32 22.8624L197.817 24.8594C197.726 25.0479 197.837 25.1802 198.147 25.2594ZM226.649 23.6844C226.619 23.8258 226.589 23.9591 226.559 24.0844C226.929 24.9296 227.852 25.3526 229.305 25.3526H229.967V31.6735H228.533C226.428 31.6264 224.904 30.9918 223.952 29.7707C223.07 30.4434 222.087 30.8745 221.015 31.0629C220.574 31.1411 220.122 31.1802 219.671 31.1802C219.22 31.1802 218.749 31.1411 218.258 31.0629C216.573 30.6088 215.721 29.4649 215.721 27.6323C215.721 27.6013 215.731 27.5612 215.751 27.515C215.781 25.6193 216.794 24.6088 218.799 24.4834C219.802 24.1546 220.303 23.2614 220.303 21.8047V21.7576C220.293 19.8468 219.441 18.8914 217.766 18.8914C216.072 18.8914 215.23 19.8468 215.23 21.7576L215.21 25.3526C214.849 29.5662 213.015 31.6735 209.706 31.6735H204.634V25.3526H206.749C208.152 25.3526 208.864 24.4915 208.864 22.7681C208.864 20.7942 209.005 19.1731 209.285 17.9049C209.957 14.756 212.714 13.0327 217.556 12.735H217.626C223.16 12.735 226.178 14.9124 226.699 19.2673C226.809 20.0353 226.859 20.7631 226.859 21.4528C226.859 22.2358 226.789 22.9797 226.649 23.6844ZM242.138 8.83516C242.138 6.81409 243.2 5.80357 245.326 5.80357C247.441 5.80357 248.504 6.81409 248.504 8.83516C248.504 10.8402 247.441 11.8427 245.326 11.8427C243.2 11.8427 242.138 10.8402 242.138 8.83516ZM245.677 3.0316C245.677 1.01052 246.749 0 248.875 0C250.99 0 252.053 1.01052 252.053 3.0316C252.053 5.03663 250.99 6.03914 248.875 6.03914C246.749 6.03914 245.677 5.03663 245.677 3.0316ZM249.085 8.85823C249.085 6.83816 250.158 5.82761 252.283 5.82761C254.398 5.82761 255.451 6.83816 255.451 8.85823C255.451 10.8633 254.398 11.8658 252.283 11.8658C250.158 11.8658 249.085 10.8633 249.085 8.85823ZM234.258 18.0222C234.258 14.5916 235.401 12.8763 237.667 12.8763C240.032 12.8923 241.215 14.2778 241.215 17.0348V22.721C241.326 24.7892 242.188 25.8228 243.802 25.8228C245.035 25.8228 245.657 24.9145 245.657 23.097V17.0348C245.657 14.3721 246.86 12.9856 249.276 12.8763C251.231 12.8763 252.263 14.3099 252.353 17.1761V22.5807C252.464 24.7892 253.256 25.893 254.729 25.893H254.769C256.203 25.893 256.915 24.8363 256.915 22.721V17.3646C256.915 14.3721 257.997 12.8763 260.153 12.8763C262.038 12.8763 262.98 14.357 263 17.3174V21.8047C263 24.7341 262.499 27.0449 261.496 28.7361C260.323 30.694 258.609 31.7517 256.373 31.9081H255.271C252.353 31.7517 250.378 30.8985 249.346 29.3476C248.734 30.8985 247.19 31.9081 244.714 32.3783C244.403 32.3943 244.093 32.4023 243.782 32.4023C240.694 32.4023 238.378 31.5402 236.824 29.8168C235.27 31.0549 233.396 31.6735 231.18 31.6735H229.356V25.3526H231.822C233.446 25.3526 234.258 24.1316 234.258 21.6874V18.0222Z" fill="#FFE5B4"/>
</svg>
