<svg width="200" height="29" viewBox="0 0 200 29" fill="none" xmlns="http://www.w3.org/2000/svg">
<path d="M4.04519 18.4969C4.03619 18.604 4.03118 18.7651 4.03118 18.9802C4.03118 19.2924 4.04018 19.7226 4.06019 20.2699C4.07019 22.2629 5.55499 23.2595 8.51557 23.2595C11.3491 23.2595 12.7658 22.0038 12.7658 19.4935V11.5052C12.7658 9.36603 13.4742 8.29545 14.891 8.29545C16.3668 8.30546 17.1042 9.16994 17.1042 10.8899V14.1436C17.0941 15.4332 17.0892 16.3367 17.0892 16.855C17.0892 17.3823 17.0851 17.9586 17.0751 18.584C17.0651 19.2003 17.0551 19.5074 17.0451 19.5074C16.86 22.38 16.0686 24.359 14.6709 25.4436C13.2351 26.6162 11.232 27.2025 8.66265 27.2025C5.97522 27.2025 3.86007 26.6843 2.31624 25.6487C0.772416 24.6232 0 22.8342 0 20.2848V18.5549C0.0690369 16.2297 0.46426 14.6759 1.18765 13.8945C2.05711 12.6828 3.07365 11.9354 4.23628 11.6522C4.6565 11.5642 5.04172 11.5202 5.39391 11.5202C6.20534 11.5202 6.85469 11.7493 7.34295 12.2086C7.87123 12.6878 8.13436 13.2101 8.13436 13.7774C8.13436 13.9825 8.09533 14.1926 8.01729 14.4077C7.76315 15.2182 7.15785 15.6233 6.20034 15.6233C4.92966 15.6233 4.21128 16.5809 4.04519 18.4969ZM9.08686 10.6557C7.75815 10.6557 7.09382 10.0304 7.09382 8.77972C7.09382 7.51905 7.75815 6.8887 9.08686 6.8887C10.4066 6.8887 11.0659 7.51905 11.0659 8.77972C11.0659 10.0304 10.4066 10.6557 9.08686 10.6557ZM23.9928 3.12167L23.9779 12.8979C24.0269 14.969 24.9454 16.0296 26.7333 16.0786H27.4957V20.0207H26.147C25.9809 20.0307 25.8148 20.0357 25.6487 20.0357C23.8998 20.0357 22.5561 19.6055 21.6186 18.7461C20.3289 17.5824 19.6835 15.7164 19.6835 13.147L19.6695 3.28276C19.7086 1.09459 20.4259 0 21.8237 0H21.8527C23.2695 0.0200107 23.9828 1.06056 23.9928 3.12167ZM35.7622 15.5363C36.3875 15.3302 36.6996 14.7739 36.6996 13.8654V13.8354C36.6896 12.6438 36.1624 12.0475 35.1168 12.0475C34.0612 12.0475 33.534 12.6438 33.534 13.8354L33.5189 16.0786C33.2948 18.707 32.1512 20.0207 30.0901 20.0207H26.9244V16.0786H28.2431C29.1226 16.0786 29.5618 15.5403 29.5618 14.4657C29.5618 13.2351 29.6499 12.2236 29.826 11.4321C30.2462 9.46809 31.9661 8.39349 34.9847 8.20739H35.0287C38.4776 8.20739 40.3636 9.56612 40.6858 12.2826C40.7548 12.8779 40.7888 13.4452 40.7888 13.9825C40.7888 15.8585 40.3686 17.3093 39.5282 18.3348C38.6397 19.2533 37.5641 19.7126 36.3045 19.7126C36.0203 19.7126 35.7271 19.6886 35.425 19.6395C34.3694 19.3564 33.8421 18.643 33.8421 17.4994C33.8421 17.4803 33.8461 17.4563 33.8561 17.4263C33.8761 16.2447 34.5115 15.6144 35.7622 15.5363ZM53.9649 19.1412C53.9649 19.1612 53.9599 19.1852 53.9499 19.2143C53.5006 21.2864 52.7582 22.9033 51.7227 24.0659C50.6871 25.2385 49.3724 26.0879 47.7796 26.6162C47.3594 26.7043 46.9741 26.7483 46.6219 26.7483C45.8105 26.7483 45.1611 26.5182 44.6729 26.0589C44.1446 25.5807 43.8815 25.0574 43.8815 24.4911C43.8815 24.286 43.9205 24.0759 43.9986 23.8608C44.2627 23.2455 44.868 22.8392 45.8155 22.6441C47.4774 22.371 48.557 21.9357 49.0552 21.3394C50.1298 20.2749 50.7161 18.8921 50.8132 17.1922C50.8232 16.918 50.8282 16.6499 50.8282 16.3858C50.8282 15.0771 50.6331 14.0165 50.2419 13.2051C50.0178 12.6488 49.5435 12.3706 48.8201 12.3706C47.7746 12.3706 47.2473 12.9659 47.2373 14.1586V14.1876C47.2373 15.0961 47.5505 15.6534 48.1758 15.8585C49.4265 15.9366 50.0618 16.5669 50.0808 17.7485C50.0908 17.7785 50.0958 17.8025 50.0958 17.8225C50.0958 18.9651 49.5675 19.6785 48.513 19.9617C48.2098 20.0107 47.9167 20.0357 47.6335 20.0357C46.3728 20.0357 45.2982 19.5765 44.4088 18.658C43.5683 17.6314 43.1481 16.1807 43.1481 14.3046C43.1481 13.7674 43.1831 13.2011 43.2512 12.6048C43.5733 9.88831 45.4593 8.53056 48.9082 8.53056H48.9522C51.5126 8.68665 53.1394 9.4831 53.8328 10.9189C54.204 11.8574 54.3901 12.9029 54.3901 14.0556C54.3901 14.2607 54.3851 14.4708 54.3751 14.6859C54.5122 15.6144 55.0785 16.0786 56.075 16.0786H56.2951V20.0207H56.2361C55.5527 19.9917 54.7954 19.6985 53.9649 19.1412ZM54.8884 5.08573C54.8884 3.82505 55.5527 3.19574 56.8814 3.19574C58.2001 3.19574 58.8595 3.82505 58.8595 5.08573C58.8595 6.3364 58.2001 6.96173 56.8814 6.96173C55.5527 6.96173 54.8884 6.3364 54.8884 5.08573ZM59.2267 5.10075C59.2267 3.84008 59.8911 3.20972 61.2198 3.20972C62.5385 3.20972 63.1978 3.84008 63.1978 5.10075C63.1978 6.35142 62.5385 6.97675 61.2198 6.97675C59.8911 6.97675 59.2267 6.35142 59.2267 5.10075ZM55.6798 16.0786H56.2511C59.3097 16.0786 60.8386 14.852 60.8386 12.3996V10.7578C60.8386 9.11689 61.5369 8.29545 62.9347 8.29545C64.2244 8.29545 64.8687 9.12091 64.8687 10.7728V12.5317C64.8687 15.2382 64.1023 17.1482 62.5685 18.2618C60.9366 19.4344 58.8945 20.0207 56.4412 20.0207H55.6798V16.0786ZM74.762 18.643V18.3498C74.782 17.5484 74.791 15.5603 74.791 12.3846C74.791 10.8898 75.4314 10.1374 76.7111 10.1274H76.9312C78.0648 10.1274 78.6901 10.9339 78.8072 12.5457C78.8172 12.9759 78.8222 13.4012 78.8222 13.8214C78.8222 14.2897 78.8072 14.7489 78.7782 15.1992C78.7872 15.3452 78.7922 15.4973 78.7922 15.6534C78.7922 16.767 78.6611 18.1787 78.397 19.8886C78.1428 21.5985 77.3854 23.0593 76.1247 24.271C74.865 25.4826 73.5994 26.264 72.3287 26.6162C71.9085 26.7043 71.5233 26.7483 71.1711 26.7483C70.3606 26.7483 69.7103 26.5182 69.222 26.0589C68.6947 25.5807 68.4307 25.0574 68.4307 24.4911C68.4307 24.286 68.4696 24.0759 68.5477 23.8608C68.8118 23.2455 69.4171 22.8392 70.3656 22.6441C72.0265 22.371 73.1061 21.9357 73.6044 21.3394C74.2978 20.7241 74.6839 19.8256 74.762 18.643ZM81.5776 3.28276C81.6167 1.09459 82.3341 0 83.7318 0H83.7608C85.1776 0.0200107 85.891 1.06056 85.901 3.12167V16.8991C85.891 18.9602 85.1776 20.0007 83.7608 20.0207H83.7318C82.3341 20.0207 81.6167 18.9261 81.5776 16.738V3.28276ZM94.4746 16.0786H96.4236V20.0207H95.6182C95.256 20.0207 94.9678 20.0937 94.7527 20.2408C94.4606 20.4559 94.2894 20.9292 94.2404 21.6626C94.2014 22.336 94.1234 22.9963 94.0053 23.6406C93.7322 24.8423 93.0478 25.8978 91.9542 26.8063C90.5074 27.8229 89.1207 28.3312 87.791 28.3312H87.2637C85.896 28.3312 85.0756 28.1551 84.8014 27.8029C84.6063 27.8029 84.3722 27.3737 84.098 26.5132V26.0449C84.098 25.2235 84.6453 24.6182 85.7399 24.227C85.906 24.227 86.062 24.208 86.2081 24.1689C86.5803 24.208 86.9315 24.227 87.2637 24.227H87.6159C88.4263 24.227 89.1497 23.8357 89.785 23.0543C90.0972 22.5461 90.2533 21.9507 90.2533 21.2664C90.2533 20.583 90.3023 19.9967 90.4004 19.5074L90.5464 18.7751C91.3378 16.9771 92.6476 16.0786 94.4746 16.0786ZM90.8546 9.04286C92.1733 9.04286 92.8337 9.6682 92.8337 10.9189C92.8337 12.1795 92.1733 12.8099 90.8546 12.8099C89.5259 12.8099 88.8616 12.1795 88.8616 10.9189C88.8616 9.6682 89.5259 9.04286 90.8546 9.04286ZM102.463 16.0786C103.332 15.9906 103.767 15.2772 103.767 13.9385C103.767 13.8304 103.762 13.6744 103.753 13.4692C103.644 12.1205 103.102 11.4472 102.126 11.4472C101.999 11.4472 101.877 11.4562 101.758 11.4762C100.987 11.5642 100.552 12.2136 100.455 13.4252C100.445 13.6303 100.44 13.7874 100.44 13.8945C100.44 15.3302 100.977 16.0586 102.052 16.0786H102.463ZM97.5962 16.0786C97.2941 15.4723 97.142 14.7889 97.142 14.0265C97.142 12.3456 97.5382 10.9779 98.3296 9.9223C98.7108 9.41403 99.2381 9.02884 99.9125 8.7647C99.8144 8.71567 99.7214 8.66163 99.6333 8.6036C99.096 8.32045 98.7548 8.03632 98.6077 7.75317C98.3736 7.40198 98.2556 7.04978 98.2556 6.69859C98.2556 6.29738 98.4026 5.86714 98.6958 5.4089C99.077 4.83159 99.6243 4.54345 100.338 4.54345C100.65 4.54345 100.992 4.59245 101.363 4.6905C102.438 4.8756 104.788 5.91119 108.413 7.7972C111.227 9.18494 112.829 11.1099 113.221 13.5723V13.6303C113.191 16.1316 112.482 17.8415 111.095 18.76C109.835 19.6005 108.13 20.0207 105.98 20.0207H95.8083V16.0786H97.5962ZM107.079 16.0636C108.535 15.9755 109.317 15.4283 109.425 14.4217V14.2606C109.425 13.3811 108.647 12.5897 107.093 11.8864C107.426 12.5117 107.593 13.1811 107.593 13.8945C107.593 13.9925 107.588 14.0895 107.578 14.1876C107.529 15.018 107.362 15.6434 107.079 16.0636ZM125.883 14.95C125.932 16.0246 125.956 16.943 125.956 17.7055C125.936 19.2493 125.487 20.0207 124.608 20.0207C124.413 20.0207 124.197 19.9817 123.963 19.9037C122.791 19.5325 122.116 17.5684 121.94 14.0115C121.921 13.5723 121.906 13.108 121.896 12.6198C121.838 8.18342 121.403 5.32983 120.593 4.06016C120.299 3.60091 120.152 3.22472 120.152 2.93156C120.152 2.42329 120.602 2.16919 121.501 2.16919C122.918 2.16919 124.017 2.78051 124.799 4.00116C125.58 5.21281 125.971 6.65958 125.971 8.33948C125.932 10.6847 125.893 12.6388 125.853 14.2026C125.863 14.4557 125.873 14.7059 125.883 14.95ZM136.494 6.80064C133.592 8.6086 132.117 10.6997 132.068 13.074V13.1621C132.147 14.95 132.601 15.8685 133.431 15.9165H133.548C134.389 15.9165 134.809 15.3942 134.809 14.3487C134.809 14.0755 134.779 13.7674 134.721 13.4252C134.672 13.1421 134.648 12.8779 134.648 12.6338C134.648 11.4521 135.224 10.8608 136.377 10.8608C137.53 10.8608 138.107 11.4271 138.107 12.5607C138.107 12.7949 138.082 13.054 138.033 13.3372C137.965 13.7184 137.931 14.1046 137.931 14.4958C137.931 15.4143 138.312 15.8725 139.073 15.8725H139.191C139.953 15.8335 140.334 14.964 140.334 13.2641C140.334 12.7558 140.295 12.1645 140.217 11.4911C140.061 10.2495 139.283 9.07685 137.887 7.97326L136.494 6.80064ZM134.106 4.14822L134.076 4.11823C133.695 3.74703 133.504 3.28279 133.504 2.7265C133.504 2.39432 133.632 2.05709 133.886 1.71491C134.247 1.42175 134.682 1.27571 135.19 1.27571C135.552 1.27571 135.952 1.34874 136.392 1.49482C137.447 1.85701 138.439 2.47731 139.367 3.35678C142.425 5.66201 144.145 8.55461 144.526 12.0335C144.535 12.2086 144.54 12.3796 144.54 12.5457C144.54 12.8199 144.526 13.088 144.496 13.3522C144.36 16.0786 143.808 17.8666 142.84 18.716C141.873 19.5665 140.764 20.0007 139.514 20.0207H139.455C137.911 20.0007 136.885 19.4784 136.377 18.4529C135.703 19.4884 134.643 20.0057 133.196 20.0057H133.152C132.293 20.0057 131.364 19.6295 130.368 18.8771C129.147 17.9586 128.536 15.9366 128.536 12.8099C128.644 10.5727 129.41 8.64763 130.837 7.03477C132 5.71606 133.089 4.75354 134.106 4.14822ZM147.12 12.4577C147.12 11.159 147.404 10.0784 147.97 9.21892C148.546 8.34946 149.66 7.91427 151.312 7.91427H152.03C153.71 7.93428 154.834 8.35947 155.401 9.18991C155.977 10.0204 156.266 11.0219 156.266 12.1945C156.266 12.6828 156.227 13.2011 156.149 13.7473C155.894 15.5553 154.551 16.5179 152.117 16.6349C151.844 16.6549 151.59 16.6649 151.356 16.6649C150.173 16.6649 149.172 16.2887 148.351 15.5363C147.531 14.7739 147.12 13.7473 147.12 12.4577ZM150.623 12.2966C150.623 13.049 150.98 13.4252 151.693 13.4252C152.416 13.4252 152.778 13.049 152.778 12.2966C152.778 11.5442 152.416 11.168 151.693 11.168C150.98 11.168 150.623 11.5442 150.623 12.2966ZM160.077 17.6024C160.575 16.811 161.175 16.4148 161.879 16.4148C162.241 16.4148 162.631 16.5178 163.051 16.7229L163.11 16.7519C164.263 17.3483 164.839 18.1937 164.839 19.2883C164.839 19.3854 164.834 19.4884 164.825 19.5955C164.747 20.6221 164.371 21.8087 163.697 23.1574C163.56 23.4406 163.403 23.7287 163.227 24.0219C162.67 24.9994 162.031 25.4876 161.307 25.4876C161.014 25.4876 160.706 25.4096 160.384 25.2525C160.101 25.1165 159.818 24.9203 159.534 24.6672C159.075 24.227 158.845 23.8067 158.845 23.4065C158.845 23.2304 158.889 23.0544 158.977 22.8783C159.26 22.332 159.969 21.8087 161.102 21.3104C161.512 21.0853 161.762 20.8802 161.85 20.6951C161.87 20.6461 161.879 20.602 161.879 20.563C161.879 20.4459 161.796 20.3429 161.629 20.2549C161.493 20.1868 161.292 20.1238 161.029 20.0648C160.824 20.0057 160.643 19.9377 160.487 19.8596C159.94 19.5855 159.665 19.2143 159.665 18.7461C159.665 18.4919 159.744 18.2127 159.901 17.9106C159.95 17.8025 160.008 17.7005 160.077 17.6024ZM167.405 12.4577C167.405 11.159 167.688 10.0784 168.254 9.21892C168.831 8.34946 169.945 7.91427 171.596 7.91427H172.314C173.995 7.93428 175.119 8.35947 175.685 9.18991C176.261 10.0204 176.549 11.0219 176.549 12.1945C176.549 12.6828 176.51 13.2011 176.432 13.7473C176.178 15.5553 174.836 16.5179 172.402 16.6349C172.128 16.6549 171.875 16.6649 171.64 16.6649C170.458 16.6649 169.457 16.2887 168.635 15.5363C167.815 14.7739 167.405 13.7473 167.405 12.4577ZM170.907 12.2966C170.907 13.049 171.264 13.4252 171.977 13.4252C172.7 13.4252 173.062 13.049 173.062 12.2966C173.062 11.5442 172.7 11.168 171.977 11.168C171.264 11.168 170.907 11.5442 170.907 12.2966ZM179.13 12.4577C179.13 11.159 179.413 10.0784 179.979 9.21892C180.556 8.34946 181.67 7.91427 183.321 7.91427H184.039C185.719 7.93428 186.844 8.35947 187.41 9.18991C187.987 10.0204 188.275 11.0219 188.275 12.1945C188.275 12.6828 188.236 13.2011 188.158 13.7473C187.904 15.5553 186.56 16.5179 184.127 16.6349C183.853 16.6549 183.599 16.6649 183.365 16.6649C182.182 16.6649 181.181 16.2887 180.361 15.5363C179.54 14.7739 179.13 13.7473 179.13 12.4577ZM182.633 12.2966C182.633 13.049 182.989 13.4252 183.702 13.4252C184.426 13.4252 184.787 13.049 184.787 12.2966C184.787 11.5442 184.426 11.168 183.702 11.168C182.989 11.168 182.633 11.5442 182.633 12.2966ZM190.854 12.4577C190.854 11.159 191.138 10.0784 191.705 9.21892C192.281 8.34946 193.394 7.91427 195.046 7.91427H195.765C197.445 7.93428 198.568 8.35947 199.136 9.18991C199.712 10.0204 200 11.0219 200 12.1945C200 12.6828 199.961 13.2011 199.883 13.7473C199.629 15.5553 198.285 16.5179 195.852 16.6349C195.579 16.6549 195.325 16.6649 195.09 16.6649C193.908 16.6649 192.906 16.2887 192.086 15.5363C191.264 14.7739 190.854 13.7473 190.854 12.4577ZM194.357 12.2966C194.357 13.049 194.714 13.4252 195.428 13.4252C196.15 13.4252 196.512 13.049 196.512 12.2966C196.512 11.5442 196.15 11.168 195.428 11.168C194.714 11.168 194.357 11.5442 194.357 12.2966Z" fill="#FADADD"/>
</svg>
